<?xml version="1.0" encoding="utf-8"?><svg xmlns:sc="https://github.com/svenboulanger/SimpleCircuit" width="470" height="290" viewBox="-37.23 -21.2 94.79 58.15" xmlns="http://www.w3.org/2000/svg"><style>path, polyline, line, circle, polygon {
    stroke: black;
    stroke-width: 0.5pt;
    fill: none;
    stroke-linecap: round;
    stroke-linejoin: round;
}
.diagram path, .diagram circle, .diagram polygon { fill: white; }
.plane { stroke-width: 1pt; }
.battery .neg { stroke-width: 0.75pt; }
text { font-family: Tahoma, Verdana, Segoe, sans-serif; font-size: 4pt; }
.small tspan { font-size: 0.8em; }
.text-stroke { stroke-width: 0.025em; }
.text-symbol { fill: black; stroke: none; }
.marker { fill: black; }
.marker.erd { fill: white; }
.dotted { stroke-dasharray: 0.5 2; }
.dashed { stroke-dasharray: 2 2; }
</style><metadata><sc:version>1.2.5.0</sc:version></metadata><metadata><sc:script><![CDATA[
GND <u> Vac("V_1\nPULSE(0, 5)", pulse) <u r> R1("R_1\n10k&#937;") <r x d> C1("C_1\n1&#181;F") <d> GND
(y GND)
X <r> T("V_out")
]]></sc:script></metadata><g class="wire" id="w-1"><path class="wire" d="M0 31.95 v-9.976" /></g><g class="wire" id="w-2"><path class="wire" d="M0 9.976 v-9.976 h9.99" /></g><g class="wire" id="w-3"><path class="wire" d="M21.99 0 h9.99" /></g><g class="wire" id="w-4"><path class="wire" d="M31.98 0 v14.48" /></g><g class="wire" id="w-5"><path class="wire" d="M31.98 17.48 v14.48" /></g><g class="wire" id="w-6"><path class="wire" d="M31.98 0 h9.99" /></g><g class="ground" id="GND-1"><path d="M-5 31.95 h10 M-3 33.95 h6 M-1 35.95 h2" /></g><g class="vs pulse" id="Vac"><circle cx="0" cy="15.98" r="6" /><polyline points="-3,18.98 -1,18.98 -1,12.98 1,12.98 1,18.98 3,18.98" /><text><tspan text-anchor="end" x="-8" y="13.88"><tspan>V</tspan><tspan dy="0.5em" style="font-size: 0.75em">1</tspan></tspan><tspan text-anchor="end" x="-8" y="22.08"><tspan>PULSE(0, 5)</tspan></tspan></text></g><g class="resistor" id="R1"><polyline points="9.99,0 10.99,-4 12.99,4 14.99,-4 16.99,4 18.99,-4 20.99,4 21.99,0" /><text class="lbl"><tspan text-anchor="middle" x="15.99" y="-15.2"><tspan>R</tspan><tspan dy="0.5em" style="font-size: 0.75em">1</tspan></tspan><tspan text-anchor="middle" x="15.99" y="-7"><tspan>10kΩ</tspan></tspan></text></g><g class="point dot" id="X-Q1"><circle cx="31.98" cy="0" r="1" class="marker dot wire" /></g><g class="capacitor" id="C1"><line x1="35.98" y1="14.48" x2="27.98" y2="14.48" class="pos plane" /><line x1="35.98" y1="17.48" x2="27.98" y2="17.48" class="neg plane" /><text class="lbl"><tspan text-anchor="start" x="37.98" y="13.88"><tspan>C</tspan><tspan dy="0.5em" style="font-size: 0.75em">1</tspan></tspan><tspan text-anchor="start" x="37.98" y="22.08"><tspan>1µF</tspan></tspan></text></g><g class="ground" id="GND-2"><path d="M26.98 31.95 h10 M28.98 33.95 h6 M30.98 35.95 h2" /></g><g class="terminal" id="T-3"><circle cx="43.47" cy="0" r="1.5" class="terminal" /><text><tspan text-anchor="start" x="45.97" y="1"><tspan>V</tspan><tspan dy="0.5em" style="font-size: 0.75em">out</tspan></tspan></text></g></svg>