<?xml version="1.0" encoding="utf-8"?><svg xmlns:sc="https://github.com/svenboulanger/SimpleCircuit" width="400" height="310" viewBox="-17.4 -12 80.76 62.8" xmlns="http://www.w3.org/2000/svg"><style>path, polyline, line, circle, polygon {
    stroke: black;
    stroke-width: 0.5pt;
    fill: none;
    stroke-linecap: round;
    stroke-linejoin: round;
}
.diagram path, .diagram circle, .diagram polygon { fill: white; }
.plane { stroke-width: 1pt; }
.battery .neg { stroke-width: 0.75pt; }
text { font-family: Tahoma, Verdana, Segoe, sans-serif; font-size: 4pt; }
.small tspan { font-size: 0.8em; }
.text-stroke { stroke-width: 0.025em; }
.text-symbol { fill: black; stroke: none; }
.marker { fill: black; }
.marker.erd { fill: white; }
.dotted { stroke-dasharray: 0.5 2; }
.dashed { stroke-dasharray: 2 2; }
</style><metadata><sc:version>1.2.5.0</sc:version></metadata><metadata><sc:script><![CDATA[
GND <u> Vgs("V_gs") <u r> [g]NMOS1("M_1")
NMOS1[s] <d> GND
NMOS1[b] <r +20 d> GND
GND <u> Vds("V_ds", flip) <u l arrow> Xds("I_ds") <l +20 d> [d]NMOS1
- Xds.angle = 90
(y GND)
]]></sc:script></metadata><g class="wire" id="w-1"><path class="wire" d="M0 45.8 v-9.914" /></g><g class="wire" id="w-2"><path class="wire" d="M0 23.89 v-9.914 h9.99" /></g><g class="wire" id="w-3"><path class="wire" d="M15.99 17.97 v27.83" /></g><g class="wire" id="w-4"><path class="wire" d="M11.99 13.97 h19.98 v31.83" /></g><g class="wire" id="w-5"><path class="wire" d="M45.96 45.8 v-16.9" /></g><g class="wire" id="w-6"><path class="wire" d="M45.96 16.9 v-16.9 h-9.99" /><polygon class="marker arrow" points="38.47,1 35.97,-0 38.47,-1" /></g><g class="wire" id="w-7"><path class="wire" d="M35.97 -0 h-19.98 v9.973" /></g><g class="ground" id="GND-1"><path d="M-5 45.8 h10 M-3 47.8 h6 M-1 49.8 h2" /></g><g class="vs" id="Vgs"><circle cx="0" cy="29.89" r="6" /><g class="signs"><path class="plus" d="M-1 26.89 h2 M0 27.89 v-2" /><line x1="-1" y1="32.89" x2="1" y2="32.89" class="minus" /></g><text><tspan text-anchor="end" x="-8" y="30.89"><tspan>V</tspan><tspan dy="0.5em" style="font-size: 0.75em">gs</tspan></tspan></text></g><g class="nmos" id="NMOS1"><path class="gate" d="M11.99 19.97 v-12 M9.99 19.97 v-12" /><line x1="15.99" y1="17.97" x2="11.99" y2="17.97" class="source" /><line x1="15.99" y1="9.973" x2="11.99" y2="9.973" class="drain" /><text><tspan text-anchor="start" x="18.99" y="21.97"><tspan>M</tspan><tspan dy="0.5em" style="font-size: 0.75em">1</tspan></tspan></text></g><g class="ground" id="GND-2"><path d="M10.99 45.8 h10 M12.99 47.8 h6 M14.99 49.8 h2" /></g><g class="ground" id="GND-3"><path d="M26.97 45.8 h10 M28.97 47.8 h6 M30.97 49.8 h2" /></g><g class="ground" id="GND-4"><path d="M40.96 45.8 h10 M42.96 47.8 h6 M44.96 49.8 h2" /></g><g class="vs flip" id="Vds"><circle cx="45.96" cy="22.9" r="6" /><g class="signs"><path class="plus" d="M46.96 19.9 h-2 M45.96 20.9 v-2" /><line x1="46.96" y1="25.9" x2="44.96" y2="25.9" class="minus" /></g><text><tspan text-anchor="start" x="53.96" y="23.9"><tspan>V</tspan><tspan dy="0.5em" style="font-size: 0.75em">ds</tspan></tspan></text></g><g class="point dot" id="Xds"><text><tspan text-anchor="middle" x="35.97" y="-6"><tspan>I</tspan><tspan dy="0.5em" style="font-size: 0.75em">ds</tspan></tspan></text></g></svg>