
<svg xmlns="http://www.w3.org/2000/svg"
     xmlns:xlink="http://www.w3.org/1999/xlink" version="1.1" width="454"
     height="314">
    <defs/>
    <g transform=" scale(0.89) translate(-377.78125,-610.4)">
        <rect x="621.6" y="621.6" width="4.8" height="4.8" fill="#000000"
              stroke="none" pointer-events="none"/>
        <rect x="621.6" y="765.6" width="4.8" height="4.8" fill="#000000"
              stroke="none" pointer-events="none"/>
        <rect x="525.6" y="693.6" width="4.8" height="4.8" fill="#000000"
              stroke="none" pointer-events="none"/>
        <path d="M 624 626.4 L 624 658.8" fill="#000000" stroke="#000000"
              stroke-width="4.8" stroke-linecap="square" stroke-miterlimit="10"
              pointer-events="none"/>
        <path d="M 624 741.6 L 624 765.6" fill="#000000" stroke="#000000"
              stroke-width="4.8" stroke-linecap="square" stroke-miterlimit="10"
              pointer-events="none"/>
        <path d="M 624 660 L 588 660" fill="none" stroke="#000000"
              stroke-width="4.8" stroke-linejoin="round" stroke-linecap="round"
              stroke-miterlimit="10" pointer-events="none"/>
        <path d="M 624 732 L 588 732" fill="none" stroke="#000000"
              stroke-width="4.8" stroke-linejoin="round" stroke-linecap="round"
              stroke-miterlimit="10" pointer-events="none"/>
        <path d="M 588 684 L 588 708" fill="none" stroke="#000000"
              stroke-width="4.8" stroke-linejoin="round" stroke-linecap="round"
              stroke-miterlimit="10" pointer-events="none"/>
        <path d="M 588 720 L 588 744" fill="none" stroke="#000000"
              stroke-width="4.8" stroke-linejoin="round" stroke-linecap="round"
              stroke-miterlimit="10" pointer-events="none"/>
        <path d="M 588 672 L 588 648" fill="none" stroke="#000000"
              stroke-width="4.8" stroke-linejoin="round" stroke-linecap="round"
              stroke-miterlimit="10" pointer-events="none"/>
        <path d="M 604.8 696 L 624 696 L 624 741.6" fill="none" stroke="#000000"
              stroke-width="4.8" stroke-linejoin="round" stroke-linecap="round"
              stroke-miterlimit="10" pointer-events="none"/>
        <ellipse cx="624" cy="732" rx="4.8" ry="4.8" fill="none"
                 stroke="#000000" stroke-width="4.8" pointer-events="none"/>
        <path d="M 530.4 696 L 566.4 696" fill="#000000" stroke="#000000"
              stroke-width="4.8" stroke-linecap="square" stroke-miterlimit="10"
              pointer-events="none"/>
        <path d="M 568.8 660 L 568.8 732" fill="none" stroke="#000000"
              stroke-width="4.8" stroke-linecap="round" stroke-miterlimit="10"
              pointer-events="none"/>
        <path d="M 605.74 686.4 L 591.34 696 L 605.74 705.6 Z" fill="#000000"
              stroke="#000000" stroke-width="2.4" stroke-linejoin="round"
              stroke-linecap="round" stroke-miterlimit="10"
              pointer-events="none"/>
        <rect x="528" y="624" width="36" height="31.2" fill-opacity="0"
              fill="#dae2f2" stroke="none" pointer-events="none"/>
        <g fill="#000000" font-family="Arial,Helvetica" font-weight="bold"
           text-anchor="middle" font-size="28.799999999999997px">
            <text x="546" y="649.2">
                M1
            </text>
        </g>
        <rect x="477.6" y="741.6" width="4.8" height="4.8" fill="#000000"
              stroke="none" pointer-events="none"/>
        <rect x="477.6" y="861.6" width="4.8" height="4.8" fill="#000000"
              stroke="none" pointer-events="none"/>
        <rect x="477.6" y="741.6" width="4.8" height="4.8" fill="#000000"
              stroke="none" pointer-events="none"/>
        <rect x="477.6" y="861.6" width="4.8" height="4.8" fill="#000000"
              stroke="none" pointer-events="none"/>
        <path d="M 436.8 795.68 C 523.2 795.68 523.2 795.68 523.2 795.68"
              fill="none" stroke="#000000" stroke-width="4.8"
              stroke-linecap="round" stroke-miterlimit="10"
              pointer-events="none"/>
        <path d="M 458.4 813.6 C 501.6 813.6 501.6 813.6 501.6 813.6"
              fill="none" stroke="#000000" stroke-width="4.8"
              stroke-linecap="round" stroke-miterlimit="10"
              pointer-events="none"/>
        <path d="M 480 746.4 L 480 794.4" fill="none" stroke="#000000"
              stroke-width="4.8" stroke-linejoin="round" stroke-linecap="square"
              stroke-miterlimit="10" pointer-events="none"/>
        <path d="M 480 813.6 L 480 861.6" fill="none" stroke="#000000"
              stroke-width="4.8" stroke-linejoin="round" stroke-linecap="square"
              stroke-miterlimit="10" pointer-events="none"/>
        <path d="M 436.8 770.4 C 460.8 770.4 460.8 770.4 460.8 770.4"
              fill="none" stroke="#000000" stroke-width="3.6"
              stroke-linecap="round" stroke-miterlimit="10"
              pointer-events="none"/>
        <path d="M 448.8 758.4 C 448.8 782.4 448.8 782.4 448.8 782.4"
              fill="none" stroke="#000000" stroke-width="3.6"
              stroke-linecap="round" stroke-miterlimit="10"
              pointer-events="none"/>
        <path d="M 436.8 795.68 C 523.2 795.68 523.2 795.68 523.2 795.68"
              fill="none" stroke="#000000" stroke-width="4.8"
              stroke-linecap="round" stroke-miterlimit="10"
              pointer-events="none"/>
        <path d="M 458.4 813.6 C 501.6 813.6 501.6 813.6 501.6 813.6"
              fill="none" stroke="#000000" stroke-width="4.8"
              stroke-linecap="round" stroke-miterlimit="10"
              pointer-events="none"/>
        <path d="M 480 746.4 L 480 794.4" fill="none" stroke="#000000"
              stroke-width="4.8" stroke-linecap="square" stroke-miterlimit="10"
              pointer-events="none"/>
        <path d="M 480 813.6 L 480 861.6" fill="none" stroke="#000000"
              stroke-width="4.8" stroke-linecap="square" stroke-miterlimit="10"
              pointer-events="none"/>
        <path d="M 436.8 770.4 C 460.8 770.4 460.8 770.4 460.8 770.4"
              fill="none" stroke="#000000" stroke-width="3.6"
              stroke-linecap="round" stroke-miterlimit="10"
              pointer-events="none"/>
        <path d="M 448.8 758.4 C 448.8 782.4 448.8 782.4 448.8 782.4"
              fill="none" stroke="#000000" stroke-width="3.6"
              stroke-linecap="round" stroke-miterlimit="10"
              pointer-events="none"/>
        <rect x="384" y="792" width="50.4" height="33.6" fill-opacity="0"
              fill="#dae2f2" stroke="none" pointer-events="none"/>
        <g fill="#000000" font-family="Arial,Helvetica" font-weight="bold"
           text-anchor="middle" font-size="28.799999999999997px">
            <text x="409.2" y="818.4">
                Vgs
            </text>
        </g>
        <rect x="765.6" y="645.6" width="4.8" height="4.8" fill="#000000"
              stroke="none" pointer-events="none"/>
        <rect x="765.6" y="765.6" width="4.8" height="4.8" fill="#000000"
              stroke="none" pointer-events="none"/>
        <rect x="765.6" y="645.6" width="4.8" height="4.8" fill="#000000"
              stroke="none" pointer-events="none"/>
        <rect x="765.6" y="765.6" width="4.8" height="4.8" fill="#000000"
              stroke="none" pointer-events="none"/>
        <path d="M 724.8 699.68 C 811.2 699.68 811.2 699.68 811.2 699.68"
              fill="none" stroke="#000000" stroke-width="4.8"
              stroke-linecap="round" stroke-miterlimit="10"
              pointer-events="none"/>
        <path d="M 746.4 717.6 C 789.6 717.6 789.6 717.6 789.6 717.6"
              fill="none" stroke="#000000" stroke-width="4.8"
              stroke-linecap="round" stroke-miterlimit="10"
              pointer-events="none"/>
        <path d="M 768 650.4 L 768 698.4" fill="none" stroke="#000000"
              stroke-width="4.8" stroke-linejoin="round" stroke-linecap="square"
              stroke-miterlimit="10" pointer-events="none"/>
        <path d="M 768 717.6 L 768 765.6" fill="none" stroke="#000000"
              stroke-width="4.8" stroke-linejoin="round" stroke-linecap="square"
              stroke-miterlimit="10" pointer-events="none"/>
        <path d="M 724.8 674.4 C 748.8 674.4 748.8 674.4 748.8 674.4"
              fill="none" stroke="#000000" stroke-width="3.6"
              stroke-linecap="round" stroke-miterlimit="10"
              pointer-events="none"/>
        <path d="M 736.8 662.4 C 736.8 686.4 736.8 686.4 736.8 686.4"
              fill="none" stroke="#000000" stroke-width="3.6"
              stroke-linecap="round" stroke-miterlimit="10"
              pointer-events="none"/>
        <path d="M 724.8 699.68 C 811.2 699.68 811.2 699.68 811.2 699.68"
              fill="none" stroke="#000000" stroke-width="4.8"
              stroke-linecap="round" stroke-miterlimit="10"
              pointer-events="none"/>
        <path d="M 746.4 717.6 C 789.6 717.6 789.6 717.6 789.6 717.6"
              fill="none" stroke="#000000" stroke-width="4.8"
              stroke-linecap="round" stroke-miterlimit="10"
              pointer-events="none"/>
        <path d="M 768 650.4 L 768 698.4" fill="none" stroke="#000000"
              stroke-width="4.8" stroke-linecap="square" stroke-miterlimit="10"
              pointer-events="none"/>
        <path d="M 768 717.6 L 768 765.6" fill="none" stroke="#000000"
              stroke-width="4.8" stroke-linecap="square" stroke-miterlimit="10"
              pointer-events="none"/>
        <path d="M 724.8 674.4 C 748.8 674.4 748.8 674.4 748.8 674.4"
              fill="none" stroke="#000000" stroke-width="3.6"
              stroke-linecap="round" stroke-miterlimit="10"
              pointer-events="none"/>
        <path d="M 736.8 662.4 C 736.8 686.4 736.8 686.4 736.8 686.4"
              fill="none" stroke="#000000" stroke-width="3.6"
              stroke-linecap="round" stroke-miterlimit="10"
              pointer-events="none"/>
        <rect x="816" y="696" width="50.4" height="33.6" fill-opacity="0"
              fill="#dae2f2" stroke="none" pointer-events="none"/>
        <g fill="#000000" font-family="Arial,Helvetica" font-weight="bold"
           text-anchor="middle" font-size="28.799999999999997px">
            <text x="841.2" y="722.4">
                Vds
            </text>
        </g>
        <path d="M 624 624 L 768 624 L 768 648" fill="none" stroke="#000000"
              stroke-width="4.8" stroke-miterlimit="10" pointer-events="none"/>
        <path d="M 528 696 L 480 696 L 480 744" fill="none" stroke="#000000"
              stroke-width="4.8" stroke-miterlimit="10" pointer-events="none"/>
        <path d="M 624 768 L 624 864 L 480 864" fill="none" stroke="#000000"
              stroke-width="4.8" stroke-miterlimit="10" pointer-events="none"/>
        <path d="M 768 768 L 768 864 L 628.8 864" fill="none" stroke="#000000"
              stroke-width="4.8" stroke-miterlimit="10" pointer-events="none"/>
        <ellipse cx="624" cy="864" rx="4.8" ry="4.8" fill="#000000"
                 stroke="#000000" stroke-width="4.8" pointer-events="none"/>
        <rect x="621.6" y="861.6" width="4.8" height="4.8" fill="#000000"
              stroke="none" pointer-events="none"/>
        <path d="M 597.6 914.4 C 650.45 914.4 650.45 914.4 650.45 914.4"
              fill="none" stroke="#000000" stroke-width="4.8"
              stroke-linecap="round" stroke-miterlimit="10"
              pointer-events="none"/>
        <path d="M 607.2 928.8 C 630.17 928.8 640.8 928.8 640.8 928.8"
              fill="none" stroke="#000000" stroke-width="4.8"
              stroke-linecap="round" stroke-miterlimit="10"
              pointer-events="none"/>
        <path d="M 616.8 943.2 C 624.29 943.2 631.2 943.2 631.2 943.2"
              fill="none" stroke="#000000" stroke-width="4.8"
              stroke-linecap="round" stroke-miterlimit="10"
              pointer-events="none"/>
        <path d="M 624 866.4 L 624 909.6" fill="#000000" stroke="#000000"
              stroke-width="4.8" stroke-linecap="square" stroke-miterlimit="10"
              pointer-events="none"/>
    </g>
</svg>