<?xml version="1.0" encoding="utf-8"?><svg xmlns:sc="https://github.com/svenboulanger/SimpleCircuit" width="1440" height="1205" viewBox="-97.43 -16 288.41 241.87" xmlns="http://www.w3.org/2000/svg"><style>g {
    stroke: black;
    stroke-width: 0.5pt;
    fill: none;
    stroke-linecap: round;
    stroke-linejoin: round;
}
text { fill: black; stroke: none; }
.marker { fill: black; }
.dashed { stroke-dasharray: 2 2; }
.diagram { fill: white; }

.process path { fill: #fff7c3; }
.decision path { fill: #bfffcc; }
.terminator path { fill: #2393e2; }
.terminator text { fill: white; }
.io path { fill: #ffb0ac; }
#FTerror path { fill: #d72d00; }
.endcss</style><metadata><sc:version>1.8.4.0</sc:version></metadata><metadata><sc:script><![CDATA[
.css
.process path { fill: #fff7c3; }
.decision path { fill: #bfffcc; }
.terminator path { fill: #2393e2; }
.terminator text { fill: white; }
.io path { fill: #ffb0ac; }
#FTerror path { fill: #d72d00; }
.endcss
.property FP radius=3 width=100
.property FD rx=2 ry=5 width=100 height=30
.property FIO width=100 r=2
.property FT width=50 height=15
.property wire r=3
.variant X -dot

* Initialization
FT("AC") <d arrow> FPop
FPop("Operating Point") <d arrow> FPinit
FPinit("Initialize frequency behaviors") <d arrow> FDcont
FDcont("Is there a frequency point left?") <r> DIR("No") <r arrow> FT("Finish")
FDcont <d> DIR("Yes") <d arrow> FPload
FPload("Load complex Y-matrix\nLoad complex right-hand side vector") <d arrow> FPfactor
FPfactor("Factor complex Y-matrix\n(LU decomposition)") <d arrow> FPsolve
FPsolve("Solve complex Y-matrix and\ncomplex right-hand side vector") <d arrow> FPupdate
FPupdate("Update behaviors") <d arrow> FPexport
FPexport("Export data") <l u r arrow> FDcont

* Behaviors
FIO1("IFrequencyBehavior list") <r +20 dashed arrow> FPop
FIO1 <d jump dashed r arrow> FPload
FIO2("IFrequencyUpdateBehavior list") <r dashed jump arrow> FPupdate

(x FIO1 <d> FIO2)

]]></sc:script></metadata><g class="wire" id="w-1"><path class="wire" d="M69.99,-0 v10" /><polygon class="marker arrow" points="70.99,7.5 69.99,10 68.99,7.5" /></g><g class="wire" id="w-2"><path class="wire" d="M69.99,25 v9.99" /><polygon class="marker arrow" points="70.99,32.49 69.99,34.99 68.99,32.49" /></g><g class="wire" id="w-3"><path class="wire" d="M69.99,49.99 v9.99" /><polygon class="marker arrow" points="70.99,57.48 69.99,59.98 68.99,57.48" /></g><g class="wire" id="w-4"><path class="wire" d="M119.99,74.98 h10" /></g><g class="wire" id="w-5"><path class="wire" d="M129.99,74.98 h10" /><polygon class="marker arrow" points="137.49,73.98 139.99,74.98 137.49,75.98" /></g><g class="wire" id="w-6"><path class="wire" d="M69.99,89.98 v9.98" /></g><g class="wire" id="w-7"><path class="wire" d="M69.99,99.95 v9.98" /><polygon class="marker arrow" points="70.99,107.43 69.99,109.93 68.99,107.43" /></g><g class="wire" id="w-8"><path class="wire" d="M69.99,124.93 v9.98" /><polygon class="marker arrow" points="70.99,132.41 69.99,134.91 68.99,132.41" /></g><g class="wire" id="w-9"><path class="wire" d="M69.99,149.91 v9.98" /><polygon class="marker arrow" points="70.99,157.4 69.99,159.9 68.99,157.4" /></g><g class="wire" id="w-10"><path class="wire" d="M69.99,174.9 v9.98" /><polygon class="marker arrow" points="70.99,182.38 69.99,184.88 68.99,182.38" /></g><g class="wire" id="w-11"><path class="wire" d="M69.99,199.88 v9.98" /><polygon class="marker arrow" points="70.99,207.37 69.99,209.87 68.99,207.37" /></g><g class="wire" id="w-12"><path class="wire" d="M19.99,217.37 h-7 C11.33,217.37 9.99,216.02 9.99,214.37 v-136.39 C9.99,76.32 11.33,74.98 12.99,74.98 h7" /><polygon class="marker arrow" points="17.49,73.98 19.99,74.98 17.49,75.98" /></g><g class="wire dashed" id="w-13"><path class="wire dashed" d="M-0,17.5 h19.99" /><polygon class="marker arrow" points="17.49,16.5 19.99,17.5 17.49,18.5" /></g><g class="wire jump dashed" id="w-14"><path class="wire dashed" d="M-47.14,24.34 v90.09 C-47.14,116.09 -45.8,117.43 -44.14,117.43 h52.63 C8.49,116.6 9.17,115.93 9.99,115.93 S11.49,116.6 11.49,117.43 h8.5" /><polygon class="marker arrow" points="17.49,116.43 19.99,117.43 17.49,118.43" /></g><g class="wire dashed jump" id="w-15"><path class="wire dashed" d="M-0,192.38 h8.49 C8.49,191.56 9.17,190.88 9.99,190.88 S11.49,191.56 11.49,192.38 h8.5" /><polygon class="marker arrow" points="17.49,191.38 19.99,192.38 17.49,193.38" /></g><g class="terminator diagram" id="FT-1"><path d="M52.49,-15 h35 C91.63,-15 94.99,-11.64 94.99,-7.5 94.99,-3.36 91.63,-0 87.49,-0 h-35 C48.35,-0 44.99,-3.36 44.99,-7.5 44.99,-11.64 48.35,-15 52.49,-15 Z" /><text class="lbl"><tspan style="font-family:Arial;font-size:4pt;" x="66.21" y="-5.5">AC</tspan></text></g><g class="process diagram" id="FPop"><path d="M22.99,10 h94 c1.66,0 3,1.34 3,3 v9 c0,1.66 -1.34,3 -3,3 h-94 c-1.66,0 -3,-1.34 -3,-3 v-9 c0,-1.66 1.34,-3 3,-3 Z" /><text class="lbl"><tspan style="font-family:Arial;font-size:4pt;" x="51.21" y="19">Operating Point</tspan></text></g><g class="process diagram" id="FPinit"><path d="M22.99,34.99 h94 c1.66,0 3,1.34 3,3 v9 c0,1.66 -1.34,3 -3,3 h-94 c-1.66,0 -3,-1.34 -3,-3 v-9 c0,-1.66 1.34,-3 3,-3 Z" /><text class="lbl"><tspan style="font-family:Arial;font-size:4pt;" x="35.45" y="43.99">Initialize frequency behaviors</tspan></text></g><g class="decision diagram" id="FDcont"><path d="M21.46,73.05 l47.21,-12.89 C69.53,59.92 70.44,59.92 71.31,60.15 l47.21,12.89 C119.39,73.29 119.99,74.08 119.99,74.98 119.99,75.88 119.39,76.67 118.52,76.91 l-47.21,12.89 C70.44,90.04 69.53,90.04 68.67,89.8 l-47.21,-12.89 C20.59,76.67 19.99,75.88 19.99,74.98 19.99,74.08 20.59,73.29 21.46,73.05" /><text class="lbl"><tspan style="font-family:Arial;font-size:4pt;" x="34.12" y="76.48">Is there a frequency point left?</tspan></text></g><g class="direction" id="DIR-2"><text class="lbl"><tspan style="font-family:Arial;font-size:4pt;" x="126.56" y="72.98">No</tspan></text></g><g class="terminator diagram" id="FT-3"><path d="M147.49,67.48 h35 C186.63,67.48 189.99,70.84 189.99,74.98 189.99,79.12 186.63,82.48 182.49,82.48 h-35 C143.35,82.48 139.99,79.12 139.99,74.98 139.99,70.84 143.35,67.48 147.49,67.48 Z" /><text class="lbl"><tspan style="font-family:Arial;font-size:4pt;" x="157.86" y="76.98">Finish</tspan></text></g><g class="direction" id="DIR-4"><text class="lbl"><tspan style="font-family:Arial;font-size:4pt;" x="71.99" y="101.95">Yes</tspan></text></g><g class="process diagram" id="FPload"><path d="M22.99,109.93 h94 c1.66,0 3,1.34 3,3 v9 c0,1.66 -1.34,3 -3,3 h-94 c-1.66,0 -3,-1.34 -3,-3 v-9 c0,-1.66 1.34,-3 3,-3 Z" /><text class="lbl"><tspan style="font-family:Arial;font-size:4pt;" x="42.81" y="115.93">Load complex Y-matrix</tspan><tspan style="font-family:Arial;font-size:4pt;" x="26.92" y="121.93">Load complex right-hand side vector</tspan></text></g><g class="process diagram" id="FPfactor"><path d="M22.99,134.91 h94 c1.66,0 3,1.34 3,3 v9 c0,1.66 -1.34,3 -3,3 h-94 c-1.66,0 -3,-1.34 -3,-3 v-9 c0,-1.66 1.34,-3 3,-3 Z" /><text class="lbl"><tspan style="font-family:Arial;font-size:4pt;" x="41.19" y="140.91">Factor complex Y-matrix</tspan><tspan style="font-family:Arial;font-size:4pt;" x="46.77" y="146.91">(LU decomposition)</tspan></text></g><g class="process diagram" id="FPsolve"><path d="M22.99,159.9 h94 c1.66,0 3,1.34 3,3 v9 c0,1.66 -1.34,3 -3,3 h-94 c-1.66,0 -3,-1.34 -3,-3 v-9 c0,-1.66 1.34,-3 3,-3 Z" /><text class="lbl"><tspan style="font-family:Arial;font-size:4pt;" x="37.04" y="165.9">Solve complex Y-matrix and</tspan><tspan style="font-family:Arial;font-size:4pt;" x="33.59" y="171.9">complex right-hand side vector</tspan></text></g><g class="process diagram" id="FPupdate"><path d="M22.99,184.88 h94 c1.66,0 3,1.34 3,3 v9 c0,1.66 -1.34,3 -3,3 h-94 c-1.66,0 -3,-1.34 -3,-3 v-9 c0,-1.66 1.34,-3 3,-3 Z" /><text class="lbl"><tspan style="font-family:Arial;font-size:4pt;" x="48.93" y="193.88">Update behaviors</tspan></text></g><g class="process diagram" id="FPexport"><path d="M22.99,209.87 h94 c1.66,0 3,1.34 3,3 v9 c0,1.66 -1.34,3 -3,3 h-94 c-1.66,0 -3,-1.34 -3,-3 v-9 c0,-1.66 1.34,-3 3,-3 Z" /><text class="lbl"><tspan style="font-family:Arial;font-size:4pt;" x="56.34" y="218.87">Export data</tspan></text></g><g class="io diagram" id="FIO1"><path d="M-94.32,24.34 C-94.97,24.34 -95.58,24.02 -95.96,23.5 -96.33,22.97 -96.43,22.29 -96.21,21.68 l3.85,-11 C-92.08,9.88 -91.32,9.34 -90.47,9.34 h90.51 C0.69,9.34 1.29,9.65 1.67,10.18 2.04,10.71 2.14,11.39 1.92,12 l-3.85,11 C-2.21,23.8 -2.96,24.34 -3.81,24.34 Z" /><text class="lbl"><tspan style="font-family:Arial;font-size:4pt;" x="-75.25" y="18.34">IFrequencyBehavior list</tspan></text></g><g class="io diagram" id="FIO2"><path d="M-94.32,199.22 C-94.97,199.22 -95.58,198.91 -95.96,198.38 -96.33,197.85 -96.43,197.17 -96.21,196.56 l3.85,-11 C-92.08,184.76 -91.32,184.22 -90.47,184.22 h90.51 C0.69,184.22 1.29,184.54 1.67,185.07 2.04,185.59 2.14,186.27 1.92,186.88 l-3.85,11 C-2.21,198.69 -2.96,199.22 -3.81,199.22 Z" /><text class="lbl"><tspan style="font-family:Arial;font-size:4pt;" x="-83.84" y="193.22">IFrequencyUpdateBehavior list</tspan></text></g></svg>