<?xml version="1.0" encoding="utf-8"?><svg xmlns:sc="https://github.com/svenboulanger/SimpleCircuit" width="1640" height="1680" viewBox="-97.43 -16 328.41 336.93" xmlns="http://www.w3.org/2000/svg"><style>g {
    stroke: black;
    stroke-width: 0.5pt;
    fill: none;
    stroke-linecap: round;
    stroke-linejoin: round;
}
text { fill: black; stroke: none; }
.marker { fill: black; }
.diagram { fill: white; }

.process path { fill: #fff7c3; }
.decision path { fill: #bfffcc; }
.terminator path { fill: #2393e2; }
.terminator text { fill: white; }
.io path { fill: #ffb0ac; }
#FTerror path { fill: #d72d00; }
.endcss</style><metadata><sc:version>1.8.3.0</sc:version></metadata><metadata><sc:script><![CDATA[
.css
.process path { fill: #fff7c3; }
.decision path { fill: #bfffcc; }
.terminator path { fill: #2393e2; }
.terminator text { fill: white; }
.io path { fill: #ffb0ac; }
#FTerror path { fill: #d72d00; }
.endcss
.property FP radius=3 width=100
.property FD rx=2 ry=5 width=100 height=30
.property FIO width=100 r=2
.property FT width=50 height=15
.variant X -dot

* Initialization
FT("OP") <d arrow> FPtemp
FPtemp("Do temperature-dependent\ncalculations") <d arrow> FPiter
FPiter("Iterate") <d arrow> FDconv
FDconv("Did we converge?") <r> DIR("No") <r arrow> FPgmin
FPgmin("Iterate with Gmin stepping") <d arrow> FDconv2
FDconv2("Did we converge?") <d> DIR("No") <d arrow> FPdiag
FPdiag("Iterate with diagonal Gmin stepping") <d arrow> FDconv3
FDconv3("Did we converge?") <d> DIR("No") <d arrow> FPsource
FPsource("Iterate with source stepping") <d arrow> FDconv4
FDconv4("Did we converge?") <d> DIR("No") <d arrow> FTerror("Exception")

FDconv4 <l> DIR("Yes") <l arrow l x d arrow> FP("Export data") <d arrow> FT("Stop")
FDconv3 <l> DIR("Yes") <l arrow l x d> X
FDconv2 <l> DIR("Yes") <l arrow l x d> X
FDconv <d> DIR("Yes") <d arrow d> X

* Behaviors
FIO1("ITemperatureBehavior list") <r arrow> FPtemp

]]></sc:script></metadata><g class="wire" id="w-1"><path class="wire" d="M60,-0 v10" /><polygon class="marker arrow" points="61,7.5 60,10 59,7.5" /></g><g class="wire" id="w-2"><path class="wire" d="M60,25 v10" /><polygon class="marker arrow" points="61,32.5 60,35 59,32.5" /></g><g class="wire" id="w-3"><path class="wire" d="M60,50 v10" /><polygon class="marker arrow" points="61,57.5 60,60 59,57.5" /></g><g class="wire" id="w-4"><path class="wire" d="M110,75 h9.99" /></g><g class="wire" id="w-5"><path class="wire" d="M119.99,75 h9.99" /><polygon class="marker arrow" points="127.48,74 129.98,75 127.48,76" /></g><g class="wire" id="w-6"><path class="wire" d="M179.98,82.5 v22.49" /><polygon class="marker arrow" points="180.98,102.49 179.98,104.99 178.98,102.49" /></g><g class="wire" id="w-7"><path class="wire" d="M179.98,134.99 v9.99" /></g><g class="wire" id="w-8"><path class="wire" d="M179.98,144.98 v9.99" /><polygon class="marker arrow" points="180.98,152.47 179.98,154.97 178.98,152.47" /></g><g class="wire" id="w-9"><path class="wire" d="M179.98,169.97 v9.99" /><polygon class="marker arrow" points="180.98,177.46 179.98,179.96 178.98,177.46" /></g><g class="wire" id="w-10"><path class="wire" d="M179.98,209.96 v9.99" /></g><g class="wire" id="w-11"><path class="wire" d="M179.98,219.95 v9.99" /><polygon class="marker arrow" points="180.98,227.44 179.98,229.94 178.98,227.44" /></g><g class="wire" id="w-12"><path class="wire" d="M179.98,244.94 v9.99" /><polygon class="marker arrow" points="180.98,252.44 179.98,254.94 178.98,252.44" /></g><g class="wire" id="w-13"><path class="wire" d="M179.98,284.94 v10" /></g><g class="wire" id="w-14"><path class="wire" d="M179.98,294.94 v10" /><polygon class="marker arrow" points="180.98,302.43 179.98,304.93 178.98,302.43" /></g><g class="wire" id="w-15"><path class="wire" d="M129.98,269.94 h-23.33" /></g><g class="wire" id="w-16"><path class="wire" d="M106.65,269.94 h-23.33 -23.33" /><polygon class="marker arrow" points="85.83,270.94 83.33,269.94 85.83,268.94" /></g><g class="wire" id="w-17"><path class="wire" d="M60,269.94 v10" /><polygon class="marker arrow" points="61,277.44 60,279.94 59,277.44" /></g><g class="wire" id="w-18"><path class="wire" d="M60,294.94 v10" /><polygon class="marker arrow" points="61,302.43 60,304.93 59,302.43" /></g><g class="wire" id="w-19"><path class="wire" d="M129.98,194.96 h-23.33" /></g><g class="wire" id="w-20"><path class="wire" d="M106.65,194.96 h-23.33 -23.33" /><polygon class="marker arrow" points="85.83,195.96 83.33,194.96 85.83,193.96" /></g><g class="wire" id="w-21"><path class="wire" d="M60,194.96 v74.97" /></g><g class="wire" id="w-22"><path class="wire" d="M129.98,119.99 h-23.33" /></g><g class="wire" id="w-23"><path class="wire" d="M106.65,119.99 h-23.33 -23.33" /><polygon class="marker arrow" points="85.83,120.99 83.33,119.99 85.83,118.99" /></g><g class="wire" id="w-24"><path class="wire" d="M60,119.99 v74.97" /></g><g class="wire" id="w-25"><path class="wire" d="M60,90 v10" /></g><g class="wire" id="w-26"><path class="wire" d="M60,99.99 v10 10" /><polygon class="marker arrow" points="61,107.49 60,109.99 59,107.49" /></g><g class="wire" id="w-27"><path class="wire" d="M-0,17.5 h10" /><polygon class="marker arrow" points="7.5,16.5 10,17.5 7.5,18.5" /></g><g class="terminator diagram" id="FT-1"><path d="M42.5,-15 h35 C81.64,-15 85,-11.64 85,-7.5 85,-3.36 81.64,-0 77.5,-0 h-35 C38.36,-0 35,-3.36 35,-7.5 35,-11.64 38.36,-15 42.5,-15 Z" /><text class="lbl"><tspan style="font-family:Arial;font-size:4pt;" x="55.93" y="-5.5">OP</tspan></text></g><g class="process diagram" id="FPtemp"><path d="M13,10 h94 c1.66,0 3,1.34 3,3 v9 c0,1.66 -1.34,3 -3,3 h-94 c-1.66,0 -3,-1.34 -3,-3 v-9 c0,-1.66 1.34,-3 3,-3 Z" /><text class="lbl"><tspan style="font-family:Arial;font-size:4pt;" x="27.74" y="16.5">Do temperature-dependent</tspan><tspan style="font-family:Arial;font-size:4pt;" x="45.91" y="22.5">calculations</tspan></text></g><g class="process diagram" id="FPiter"><path d="M13,35 h94 c1.66,0 3,1.34 3,3 v9 c0,1.66 -1.34,3 -3,3 h-94 c-1.66,0 -3,-1.34 -3,-3 v-9 c0,-1.66 1.34,-3 3,-3 Z" /><text class="lbl"><tspan style="font-family:Arial;font-size:4pt;" x="52.43" y="44.5">Iterate</tspan></text></g><g class="decision diagram" id="FDconv"><path d="M11.47,73.07 l47.21,-12.89 C59.54,59.94 60.45,59.94 61.32,60.17 l47.21,12.89 C109.4,73.31 110,74.1 110,75 110,75.9 109.4,76.69 108.53,76.93 l-47.21,12.89 C60.45,90.06 59.54,90.06 58.68,89.82 l-47.21,-12.89 C10.6,76.69 10,75.9 10,75 10,74.1 10.6,73.31 11.47,73.07" /><text class="lbl"><tspan style="font-family:Arial;font-size:4pt;" x="38.65" y="76.5">Did we converge?</tspan></text></g><g class="direction" id="DIR-2"><text class="lbl"><tspan style="font-family:Arial;font-size:4pt;" x="116.57" y="73">No</tspan></text></g><g class="process diagram" id="FPgmin"><path d="M132.98,67.5 h94 c1.66,0 3,1.34 3,3 v9 c0,1.66 -1.34,3 -3,3 h-94 c-1.66,0 -3,-1.34 -3,-3 v-9 c0,-1.66 1.34,-3 3,-3 Z" /><text class="lbl"><tspan style="font-family:Arial;font-size:4pt;" x="149.01" y="76.5">Iterate with Gmin stepping</tspan></text></g><g class="decision diagram" id="FDconv2"><path d="M131.46,118.06 l47.21,-12.89 C179.53,104.93 180.44,104.93 181.3,105.16 l47.21,12.89 C229.38,118.3 229.98,119.09 229.98,119.99 229.98,120.89 229.38,121.68 228.51,121.92 l-47.21,12.89 C180.44,135.05 179.53,135.05 178.67,134.81 l-47.21,-12.89 C130.59,121.68 129.98,120.89 129.98,119.99 129.98,119.09 130.59,118.3 131.46,118.06" /><text class="lbl"><tspan style="font-family:Arial;font-size:4pt;" x="158.63" y="121.49">Did we converge?</tspan></text></g><g class="direction" id="DIR-3"><text class="lbl"><tspan style="font-family:Arial;font-size:4pt;" x="181.98" y="146.98">No</tspan></text></g><g class="process diagram" id="FPdiag"><path d="M132.98,154.97 h94 c1.66,0 3,1.34 3,3 v9 c0,1.66 -1.34,3 -3,3 h-94 c-1.66,0 -3,-1.34 -3,-3 v-9 c0,-1.66 1.34,-3 3,-3 Z" /><text class="lbl"><tspan style="font-family:Arial;font-size:4pt;" x="138.19" y="163.97">Iterate with diagonal Gmin stepping</tspan></text></g><g class="decision diagram" id="FDconv3"><path d="M131.46,193.03 l47.21,-12.89 C179.53,179.9 180.44,179.9 181.3,180.14 l47.21,12.89 C229.38,193.27 229.98,194.06 229.98,194.96 229.98,195.86 229.38,196.65 228.51,196.89 l-47.21,12.89 C180.44,210.02 179.53,210.02 178.67,209.79 l-47.21,-12.89 C130.59,196.65 129.98,195.86 129.98,194.96 129.98,194.06 130.59,193.27 131.46,193.03" /><text class="lbl"><tspan style="font-family:Arial;font-size:4pt;" x="158.63" y="196.46">Did we converge?</tspan></text></g><g class="direction" id="DIR-4"><text class="lbl"><tspan style="font-family:Arial;font-size:4pt;" x="181.98" y="221.95">No</tspan></text></g><g class="process diagram" id="FPsource"><path d="M132.98,229.94 h94 c1.66,0 3,1.34 3,3 v9 c0,1.66 -1.34,3 -3,3 h-94 c-1.66,0 -3,-1.34 -3,-3 v-9 c0,-1.66 1.34,-3 3,-3 Z" /><text class="lbl"><tspan style="font-family:Arial;font-size:4pt;" x="147.38" y="238.94">Iterate with source stepping</tspan></text></g><g class="decision diagram" id="FDconv4"><path d="M131.46,268.01 l47.21,-12.89 C179.53,254.88 180.44,254.88 181.3,255.11 l47.21,12.89 C229.38,268.24 229.98,269.03 229.98,269.94 229.98,270.84 229.38,271.63 228.51,271.87 l-47.21,12.89 C180.44,285 179.53,285 178.67,284.76 l-47.21,-12.89 C130.59,271.63 129.98,270.84 129.98,269.94 129.98,269.03 130.59,268.24 131.46,268.01" /><text class="lbl"><tspan style="font-family:Arial;font-size:4pt;" x="158.63" y="271.44">Did we converge?</tspan></text></g><g class="direction" id="DIR-5"><text class="lbl"><tspan style="font-family:Arial;font-size:4pt;" x="181.98" y="296.94">No</tspan></text></g><g class="terminator diagram" id="FTerror"><path d="M162.48,304.93 h35 C201.63,304.93 204.98,308.29 204.98,312.43 204.98,316.58 201.63,319.93 197.48,319.93 h-35 C158.34,319.93 154.98,316.58 154.98,312.43 154.98,308.29 158.34,304.93 162.48,304.93 Z" /><text class="lbl"><tspan style="font-family:Arial;font-size:4pt;" x="168.26" y="313.93">Exception</tspan></text></g><g class="direction" id="DIR-6"><text class="lbl"><tspan style="font-family:Arial;font-size:4pt;" x="102.14" y="275.94">Yes</tspan></text></g><g class="process diagram" id="FP-7"><path d="M13,279.94 h94 c1.66,0 3,1.34 3,3 v9 c0,1.66 -1.34,3 -3,3 h-94 c-1.66,0 -3,-1.34 -3,-3 v-9 c0,-1.66 1.34,-3 3,-3 Z" /><text class="lbl"><tspan style="font-family:Arial;font-size:4pt;" x="46.35" y="288.94">Export data</tspan></text></g><g class="terminator diagram" id="FT-8"><path d="M42.5,304.93 h35 C81.64,304.93 85,308.29 85,312.43 85,316.58 81.64,319.93 77.5,319.93 h-35 C38.36,319.93 35,316.58 35,312.43 35,308.29 38.36,304.93 42.5,304.93 Z" /><text class="lbl"><tspan style="font-family:Arial;font-size:4pt;" x="54.5" y="313.93">Stop</tspan></text></g><g class="direction" id="DIR-9"><text class="lbl"><tspan style="font-family:Arial;font-size:4pt;" x="102.14" y="200.96">Yes</tspan></text></g><g class="direction" id="DIR-10"><text class="lbl"><tspan style="font-family:Arial;font-size:4pt;" x="102.14" y="125.99">Yes</tspan></text></g><g class="direction" id="DIR-11"><text class="lbl"><tspan style="font-family:Arial;font-size:4pt;" x="62" y="101.99">Yes</tspan></text></g><g class="io diagram" id="FIO1"><path d="M-94.32,24.34 C-94.97,24.34 -95.58,24.02 -95.96,23.5 -96.33,22.97 -96.43,22.29 -96.21,21.68 l3.85,-11 C-92.08,9.88 -91.32,9.34 -90.47,9.34 h90.51 C0.69,9.34 1.29,9.65 1.67,10.18 2.04,10.71 2.14,11.39 1.92,12 l-3.85,11 C-2.21,23.8 -2.96,24.34 -3.81,24.34 Z" /><text class="lbl"><tspan style="font-family:Arial;font-size:4pt;" x="-77.62" y="18.34">ITemperatureBehavior list</tspan></text></g></svg>