<svg xmlns="http://www.w3.org/2000/svg" xmlns:xlink="http://www.w3.org/1999/xlink" xmlns:lucid="lucid" width="740" height="591"><g transform="translate(-80 -160)" lucid:page-tab-id="0_0"><path d="M100 402c0-1.1.9-2 2-2h156c1.1 0 2 .9 2 2v56c0 1.1-.9 2-2 2H102c-1.1 0-2-.9-2-2z" stroke="#000" stroke-width="2" fill="#fff"/><use xlink:href="#a" transform="matrix(1,0,0,1,105,405) translate(51.5 28.6)"/><path d="M360 402c0-1.1.9-2 2-2h156c1.1 0 2 .9 2 2v56c0 1.1-.9 2-2 2H362c-1.1 0-2-.9-2-2z" stroke="#000" stroke-width="2" fill="#fff"/><use xlink:href="#b" transform="matrix(1,0,0,1,365,405) translate(42.5 28.6)"/><path d="M640 402c0-1.1.9-2 2-2h156c1.1 0 2 .9 2 2v56c0 1.1-.9 2-2 2H642c-1.1 0-2-.9-2-2z" stroke="#000" stroke-width="2" fill="#fff"/><use xlink:href="#c" transform="matrix(1,0,0,1,645,405) translate(8.074999999999989 28.6)"/><path d="M228 180c17.67 0 32 17.9 32 40s-14.33 40-32 40h-96c-17.67 0-32-17.9-32-40s14.33-40 32-40z" stroke="#7ab648" stroke-width="2" fill="#c7e8ac"/><use xlink:href="#d" transform="matrix(1,0,0,1,105,185) translate(15.624999999999993 38.6)"/><use xlink:href="#e" transform="matrix(1,0,0,1,105,185) translate(53.574999999999996 38.6)"/><path d="M768 600c17.67 0 32 17.9 32 40s-14.33 40-32 40h-96c-17.67 0-32-17.9-32-40s14.33-40 32-40z" stroke="#c92d39" stroke-width="2" fill="#ffbbb1"/><use xlink:href="#f" transform="matrix(1,0,0,1,645,605) translate(16.099999999999994 38.6)"/><use xlink:href="#e" transform="matrix(1,0,0,1,645,605) translate(53.099999999999994 38.6)"/><path d="M360 302c0-1.1.9-2 2-2h156c1.1 0 2 .9 2 2v56c0 1.1-.9 2-2 2H362c-1.1 0-2-.9-2-2z" stroke="#ef8d22" stroke-width="2" fill="#ffeca9"/><use xlink:href="#g" transform="matrix(1,0,0,1,365,305) translate(16.025 28.6)"/><path d="M360 502c0-1.1.9-2 2-2h156c1.1 0 2 .9 2 2v56c0 1.1-.9 2-2 2H362c-1.1 0-2-.9-2-2z" stroke="#ef8d22" stroke-width="2" fill="#ffeca9"/><use xlink:href="#h" transform="matrix(1,0,0,1,365,505) translate(23.525 28.6)"/><path d="M100 302c0-1.1.9-2 2-2h156c1.1 0 2 .9 2 2v56c0 1.1-.9 2-2 2H102c-1.1 0-2-.9-2-2z" stroke="#ef8d22" stroke-width="2" fill="#ffeca9"/><use xlink:href="#i" transform="matrix(1,0,0,1,105,305) translate(25.025 28.6)"/><path d="M100 502c0-1.1.9-2 2-2h156c1.1 0 2 .9 2 2v56c0 1.1-.9 2-2 2H102c-1.1 0-2-.9-2-2z" stroke="#ef8d22" stroke-width="2" fill="#ffeca9"/><use xlink:href="#j" transform="matrix(1,0,0,1,105,505) translate(32.525 28.6)"/><path d="M640 302c0-1.1.9-2 2-2h156c1.1 0 2 .9 2 2v56c0 1.1-.9 2-2 2H642c-1.1 0-2-.9-2-2z" stroke="#ef8d22" stroke-width="2" fill="#ffeca9"/><use xlink:href="#k" transform="matrix(1,0,0,1,645,305) translate(15.049999999999997 28.6)"/><path d="M640 502c0-1.1.9-2 2-2h156c1.1 0 2 .9 2 2v56c0 1.1-.9 2-2 2H642c-1.1 0-2-.9-2-2z" stroke="#ef8d22" stroke-width="2" fill="#ffeca9"/><use xlink:href="#l" transform="matrix(1,0,0,1,645,505) translate(22.549999999999997 28.6)"/><path d="M180 261v19.76" stroke="#000" stroke-width="2" fill="none"/><path d="M181 261h-2v-1h2zM180 295.76l-4.64-14.26h9.28z"/><path d="M180 299l-6-18.5h12zm-3.26-16.5l3.26 10.03 3.26-10.03z"/><path d="M180 361v19.76" stroke="#000" stroke-width="2" fill="none"/><path d="M181 361h-2v-1h2zM180 395.76l-4.64-14.26h9.28z"/><path d="M180 399l-6-18.5h12zm-3.26-16.5l3.26 10.03 3.26-10.03z"/><path d="M180 461v19.76" stroke="#000" stroke-width="2" fill="none"/><path d="M181 461h-2v-1h2zM180 495.76l-4.64-14.26h9.28z"/><path d="M180 499l-6-18.5h12zm-3.26-16.5l3.26 10.03 3.26-10.03z"/><path d="M440 600l80 60-80 60-80-60z" stroke="#000" stroke-width="2" fill="#fff"/><use xlink:href="#m" transform="matrix(1,0,0,1,365,605) translate(41.025 58.6)"/><path d="M562.67 661h-41v-2h39V424.13h2zm0-258.47h-2V260h-90.34v20.76h-2V258h94.34zM521.67 661h-3l1.33-1-1.33-1h3z"/><path d="M469.33 295.76l-4.63-14.26h9.27z"/><path d="M469.33 299l-6-18.5h12.02zm-3.26-16.5l3.26 10.03 3.26-10.03z"/><use xlink:href="#n" transform="matrix(1,0,0,1,546.991667,402.53333316666664) translate(0 14.4)"/><path d="M180 561v40h130V259h99.33v21.76" stroke="#000" stroke-width="2" fill="none"/><path d="M181 561h-2v-1h2zM409.33 295.76l-4.63-14.26h9.27z"/><path d="M409.33 299l-6-18.5h12.02zm-3.26-16.5l3.26 10.03 3.26-10.03z"/><path d="M440 361v19.76" stroke="#000" stroke-width="2" fill="none"/><path d="M441 361h-2v-1h2zM440 395.76l-4.64-14.26h9.28z"/><path d="M440 399l-6-18.5h12zm-3.26-16.5l3.26 10.03 3.26-10.03z"/><path d="M440 461v19.76" stroke="#000" stroke-width="2" fill="none"/><path d="M441 461h-2v-1h2zM440 495.76l-4.64-14.26h9.28z"/><path d="M440 499l-6-18.5h12zm-3.26-16.5l3.26 10.03 3.26-10.03z"/><path d="M440 561v19.5" stroke="#000" stroke-width="2" fill="none"/><path d="M441 561h-2v-1h2zM440 595.5l-4.64-14.25h9.28z"/><path d="M440 598.75l-6-18.5h12zm-3.26-16.5l3.26 10.03 3.26-10.03zM601 741H439v-19.75h2V739h158V519.67h2zm120-460.24h-2V260H601v238.07h-2V258h122z"/><path d="M441 721.25h-2v-2l1 .75 1-.75zM720 295.76l-4.64-14.26h9.28z"/><path d="M720 299l-6-18.5h12zm-3.26-16.5l3.26 10.03 3.26-10.03z"/><use xlink:href="#o" transform="matrix(1,0,0,1,588.525,498.075) translate(0 14.4)"/><path d="M720 561v19.76" stroke="#000" stroke-width="2" fill="none"/><path d="M721 561h-2v-1h2zM720 595.76l-4.64-14.26h9.28z"/><path d="M720 599l-6-18.5h12zm-3.26-16.5l3.26 10.03 3.26-10.03z"/><path d="M720 361v19.76" stroke="#000" stroke-width="2" fill="none"/><path d="M721 361h-2v-1h2zM720 395.76l-4.64-14.26h9.28z"/><path d="M720 399l-6-18.5h12zm-3.26-16.5l3.26 10.03 3.26-10.03z"/><path d="M720 461v19.76" stroke="#000" stroke-width="2" fill="none"/><path d="M721 461h-2v-1h2zM720 495.76l-4.64-14.26h9.28z"/><path d="M720 499l-6-18.5h12zm-3.26-16.5l3.26 10.03 3.26-10.03z"/><defs><path d="M185-189c-5-48-123-54-124 2 14 75 158 14 163 119 3 78-121 87-175 55-17-10-28-26-33-46l33-7c5 56 141 63 141-1 0-78-155-14-162-118-5-82 145-84 179-34 5 7 8 16 11 25" id="p"/><path d="M100-194c63 0 86 42 84 106H49c0 40 14 67 53 68 26 1 43-12 49-29l28 8c-11 28-37 45-77 45C44 4 14-33 15-96c1-61 26-98 85-98zm52 81c6-60-76-77-97-28-3 7-6 17-6 28h103" id="q"/><path d="M59-47c-2 24 18 29 38 22v24C64 9 27 4 27-40v-127H5v-23h24l9-43h21v43h35v23H59v120" id="r"/><path d="M84 4C-5 8 30-112 23-190h32v120c0 31 7 50 39 49 72-2 45-101 50-169h31l1 190h-30c-1-10 1-25-2-33-11 22-28 36-60 37" id="s"/><path d="M115-194c55 1 70 41 70 98S169 2 115 4C84 4 66-9 55-30l1 105H24l-1-265h31l2 30c10-21 28-34 59-34zm-8 174c40 0 45-34 45-75s-6-73-45-74c-42 0-51 32-51 76 0 43 10 73 51 73" id="t"/><g id="a"><use transform="matrix(0.05,0,0,0.05,0,0)" xlink:href="#p"/><use transform="matrix(0.05,0,0,0.05,12,0)" xlink:href="#q"/><use transform="matrix(0.05,0,0,0.05,22,0)" xlink:href="#r"/><use transform="matrix(0.05,0,0,0.05,27,0)" xlink:href="#s"/><use transform="matrix(0.05,0,0,0.05,37,0)" xlink:href="#t"/></g><path d="M30 0v-248h187v28H63v79h144v27H63v87h162V0H30" id="u"/><path d="M141 0L90-78 38 0H4l68-98-65-92h35l48 74 47-74h35l-64 92 68 98h-35" id="v"/><path d="M96-169c-40 0-48 33-48 73s9 75 48 75c24 0 41-14 43-38l32 2c-6 37-31 61-74 61-59 0-76-41-82-99-10-93 101-131 147-64 4 7 5 14 7 22l-32 3c-4-21-16-35-41-35" id="w"/><g id="b"><use transform="matrix(0.05,0,0,0.05,0,0)" xlink:href="#u"/><use transform="matrix(0.05,0,0,0.05,12,0)" xlink:href="#v"/><use transform="matrix(0.05,0,0,0.05,21,0)" xlink:href="#q"/><use transform="matrix(0.05,0,0,0.05,31,0)" xlink:href="#w"/><use transform="matrix(0.05,0,0,0.05,40,0)" xlink:href="#s"/><use transform="matrix(0.05,0,0,0.05,50,0)" xlink:href="#r"/><use transform="matrix(0.05,0,0,0.05,55,0)" xlink:href="#q"/></g><path d="M232-93c-1 65-40 97-104 97C67 4 28-28 28-90v-158h33c8 89-33 224 67 224 102 0 64-133 71-224h33v155" id="x"/><path d="M117-194c89-4 53 116 60 194h-32v-121c0-31-8-49-39-48C34-167 62-67 57 0H25l-1-190h30c1 10-1 24 2 32 11-22 29-35 61-36" id="y"/><path d="M135-143c-3-34-86-38-87 0 15 53 115 12 119 90S17 21 10-45l28-5c4 36 97 45 98 0-10-56-113-15-118-90-4-57 82-63 122-42 12 7 21 19 24 35" id="z"/><path d="M0 4l72-265h28L28 4H0" id="A"/><path d="M30-248c118-7 216 8 213 122C240-48 200 0 122 0H30v-248zM63-27c89 8 146-16 146-99s-60-101-146-95v194" id="B"/><path d="M114-163C36-179 61-72 57 0H25l-1-190h30c1 12-1 29 2 39 6-27 23-49 58-41v29" id="C"/><path d="M100-194c62-1 85 37 85 99 1 63-27 99-86 99S16-35 15-95c0-66 28-99 85-99zM99-20c44 1 53-31 53-75 0-43-8-75-51-75s-53 32-53 75 10 74 51 75" id="D"/><path d="M179-190L93 31C79 59 56 82 12 73V49c39 6 53-20 64-50L1-190h34L92-34l54-156h33" id="E"/><g id="c"><use transform="matrix(0.05,0,0,0.05,0,0)" xlink:href="#x"/><use transform="matrix(0.05,0,0,0.05,12.950000000000001,0)" xlink:href="#y"/><use transform="matrix(0.05,0,0,0.05,22.950000000000003,0)" xlink:href="#z"/><use transform="matrix(0.05,0,0,0.05,31.950000000000003,0)" xlink:href="#q"/><use transform="matrix(0.05,0,0,0.05,41.95,0)" xlink:href="#r"/><use transform="matrix(0.05,0,0,0.05,46.95,0)" xlink:href="#s"/><use transform="matrix(0.05,0,0,0.05,56.95,0)" xlink:href="#t"/><use transform="matrix(0.05,0,0,0.05,66.95,0)" xlink:href="#A"/><use transform="matrix(0.05,0,0,0.05,71.95,0)" xlink:href="#B"/><use transform="matrix(0.05,0,0,0.05,84.9,0)" xlink:href="#q"/><use transform="matrix(0.05,0,0,0.05,94.9,0)" xlink:href="#z"/><use transform="matrix(0.05,0,0,0.05,103.9,0)" xlink:href="#r"/><use transform="matrix(0.05,0,0,0.05,108.9,0)" xlink:href="#C"/><use transform="matrix(0.05,0,0,0.05,114.85000000000001,0)" xlink:href="#D"/><use transform="matrix(0.05,0,0,0.05,124.85000000000001,0)" xlink:href="#E"/></g><path d="M233-177c-1 41-23 64-60 70L243 0h-38l-65-103H63V0H30v-248c88 3 205-21 203 71zM63-129c60-2 137 13 137-47 0-61-80-42-137-45v92" id="F"/><g id="d"><use transform="matrix(0.05,0,0,0.05,0,0)" xlink:href="#F"/><use transform="matrix(0.05,0,0,0.05,12.950000000000001,0)" xlink:href="#s"/><use transform="matrix(0.05,0,0,0.05,22.950000000000003,0)" xlink:href="#y"/></g><path d="M24-231v-30h32v30H24zM24 0v-190h32V0H24" id="G"/><path d="M210-169c-67 3-38 105-44 169h-31v-121c0-29-5-50-35-48C34-165 62-65 56 0H25l-1-190h30c1 10-1 24 2 32 10-44 99-50 107 0 11-21 27-35 58-36 85-2 47 119 55 194h-31v-121c0-29-5-49-35-48" id="H"/><path d="M24 0v-261h32V0H24" id="I"/><path d="M141-36C126-15 110 5 73 4 37 3 15-17 15-53c-1-64 63-63 125-63 3-35-9-54-41-54-24 1-41 7-42 31l-33-3c5-37 33-52 76-52 45 0 72 20 72 64v82c-1 20 7 32 28 27v20c-31 9-61-2-59-35zM48-53c0 20 12 33 32 33 41-3 63-29 60-74-43 2-92-5-92 41" id="J"/><g id="e"><use transform="matrix(0.05,0,0,0.05,0,0)" xlink:href="#z"/><use transform="matrix(0.05,0,0,0.05,9,0)" xlink:href="#G"/><use transform="matrix(0.05,0,0,0.05,12.949999999999998,0)" xlink:href="#H"/><use transform="matrix(0.05,0,0,0.05,27.899999999999995,0)" xlink:href="#s"/><use transform="matrix(0.05,0,0,0.05,37.9,0)" xlink:href="#I"/><use transform="matrix(0.05,0,0,0.05,41.85,0)" xlink:href="#J"/><use transform="matrix(0.05,0,0,0.05,51.85,0)" xlink:href="#r"/><use transform="matrix(0.05,0,0,0.05,56.85,0)" xlink:href="#G"/><use transform="matrix(0.05,0,0,0.05,60.800000000000004,0)" xlink:href="#D"/><use transform="matrix(0.05,0,0,0.05,70.80000000000001,0)" xlink:href="#y"/></g><path d="M85-194c31 0 48 13 60 33l-1-100h32l1 261h-30c-2-10 0-23-3-31C134-8 116 4 85 4 32 4 16-35 15-94c0-66 23-100 70-100zm9 24c-40 0-46 34-46 75 0 40 6 74 45 74 42 0 51-32 51-76 0-42-9-74-50-73" id="K"/><g id="f"><use transform="matrix(0.05,0,0,0.05,0,0)" xlink:href="#u"/><use transform="matrix(0.05,0,0,0.05,12,0)" xlink:href="#y"/><use transform="matrix(0.05,0,0,0.05,22,0)" xlink:href="#K"/></g><path d="M160-131c35 5 61 23 61 61C221 17 115-2 30 0v-248c76 3 177-17 177 60 0 33-19 50-47 57zm-97-11c50-1 110 9 110-42 0-47-63-36-110-37v79zm0 115c55-2 124 14 124-45 0-56-70-42-124-44v89" id="L"/><path d="M101-234c-31-9-42 10-38 44h38v23H63V0H32v-167H5v-23h27c-7-52 17-82 69-68v24" id="M"/><g id="g"><use transform="matrix(0.05,0,0,0.05,0,0)" xlink:href="#L"/><use transform="matrix(0.05,0,0,0.05,12,0)" xlink:href="#q"/><use transform="matrix(0.05,0,0,0.05,22,0)" xlink:href="#M"/><use transform="matrix(0.05,0,0,0.05,27,0)" xlink:href="#D"/><use transform="matrix(0.05,0,0,0.05,37,0)" xlink:href="#C"/><use transform="matrix(0.05,0,0,0.05,42.95,0)" xlink:href="#q"/><use transform="matrix(0.05,0,0,0.05,52.95,0)" xlink:href="#u"/><use transform="matrix(0.05,0,0,0.05,64.95,0)" xlink:href="#v"/><use transform="matrix(0.05,0,0,0.05,73.95,0)" xlink:href="#q"/><use transform="matrix(0.05,0,0,0.05,83.95,0)" xlink:href="#w"/><use transform="matrix(0.05,0,0,0.05,92.95,0)" xlink:href="#s"/><use transform="matrix(0.05,0,0,0.05,102.95,0)" xlink:href="#r"/><use transform="matrix(0.05,0,0,0.05,107.95,0)" xlink:href="#q"/></g><path d="M205 0l-28-72H64L36 0H1l101-248h38L239 0h-34zm-38-99l-47-123c-12 45-31 82-46 123h93" id="N"/><g id="h"><use transform="matrix(0.05,0,0,0.05,0,0)" xlink:href="#N"/><use transform="matrix(0.05,0,0,0.05,12,0)" xlink:href="#M"/><use transform="matrix(0.05,0,0,0.05,17,0)" xlink:href="#r"/><use transform="matrix(0.05,0,0,0.05,22,0)" xlink:href="#q"/><use transform="matrix(0.05,0,0,0.05,32,0)" xlink:href="#C"/><use transform="matrix(0.05,0,0,0.05,37.95,0)" xlink:href="#u"/><use transform="matrix(0.05,0,0,0.05,49.95,0)" xlink:href="#v"/><use transform="matrix(0.05,0,0,0.05,58.95,0)" xlink:href="#q"/><use transform="matrix(0.05,0,0,0.05,68.95,0)" xlink:href="#w"/><use transform="matrix(0.05,0,0,0.05,77.95,0)" xlink:href="#s"/><use transform="matrix(0.05,0,0,0.05,87.95,0)" xlink:href="#r"/><use transform="matrix(0.05,0,0,0.05,92.95,0)" xlink:href="#q"/></g><g id="i"><use transform="matrix(0.05,0,0,0.05,0,0)" xlink:href="#L"/><use transform="matrix(0.05,0,0,0.05,12,0)" xlink:href="#q"/><use transform="matrix(0.05,0,0,0.05,22,0)" xlink:href="#M"/><use transform="matrix(0.05,0,0,0.05,27,0)" xlink:href="#D"/><use transform="matrix(0.05,0,0,0.05,37,0)" xlink:href="#C"/><use transform="matrix(0.05,0,0,0.05,42.95,0)" xlink:href="#q"/><use transform="matrix(0.05,0,0,0.05,52.95,0)" xlink:href="#p"/><use transform="matrix(0.05,0,0,0.05,64.95,0)" xlink:href="#q"/><use transform="matrix(0.05,0,0,0.05,74.95,0)" xlink:href="#r"/><use transform="matrix(0.05,0,0,0.05,79.95,0)" xlink:href="#s"/><use transform="matrix(0.05,0,0,0.05,89.95,0)" xlink:href="#t"/></g><g id="j"><use transform="matrix(0.05,0,0,0.05,0,0)" xlink:href="#N"/><use transform="matrix(0.05,0,0,0.05,12,0)" xlink:href="#M"/><use transform="matrix(0.05,0,0,0.05,17,0)" xlink:href="#r"/><use transform="matrix(0.05,0,0,0.05,22,0)" xlink:href="#q"/><use transform="matrix(0.05,0,0,0.05,32,0)" xlink:href="#C"/><use transform="matrix(0.05,0,0,0.05,37.95,0)" xlink:href="#p"/><use transform="matrix(0.05,0,0,0.05,49.95,0)" xlink:href="#q"/><use transform="matrix(0.05,0,0,0.05,59.95,0)" xlink:href="#r"/><use transform="matrix(0.05,0,0,0.05,64.95,0)" xlink:href="#s"/><use transform="matrix(0.05,0,0,0.05,74.95,0)" xlink:href="#t"/></g><g id="k"><use transform="matrix(0.05,0,0,0.05,0,0)" xlink:href="#L"/><use transform="matrix(0.05,0,0,0.05,12,0)" xlink:href="#q"/><use transform="matrix(0.05,0,0,0.05,22,0)" xlink:href="#M"/><use transform="matrix(0.05,0,0,0.05,27,0)" xlink:href="#D"/><use transform="matrix(0.05,0,0,0.05,37,0)" xlink:href="#C"/><use transform="matrix(0.05,0,0,0.05,42.95,0)" xlink:href="#q"/><use transform="matrix(0.05,0,0,0.05,52.95,0)" xlink:href="#x"/><use transform="matrix(0.05,0,0,0.05,65.9,0)" xlink:href="#y"/><use transform="matrix(0.05,0,0,0.05,75.9,0)" xlink:href="#z"/><use transform="matrix(0.05,0,0,0.05,84.9,0)" xlink:href="#q"/><use transform="matrix(0.05,0,0,0.05,94.9,0)" xlink:href="#r"/><use transform="matrix(0.05,0,0,0.05,99.9,0)" xlink:href="#s"/><use transform="matrix(0.05,0,0,0.05,109.9,0)" xlink:href="#t"/></g><g id="l"><use transform="matrix(0.05,0,0,0.05,0,0)" xlink:href="#N"/><use transform="matrix(0.05,0,0,0.05,12,0)" xlink:href="#M"/><use transform="matrix(0.05,0,0,0.05,17,0)" xlink:href="#r"/><use transform="matrix(0.05,0,0,0.05,22,0)" xlink:href="#q"/><use transform="matrix(0.05,0,0,0.05,32,0)" xlink:href="#C"/><use transform="matrix(0.05,0,0,0.05,37.95,0)" xlink:href="#x"/><use transform="matrix(0.05,0,0,0.05,50.900000000000006,0)" xlink:href="#y"/><use transform="matrix(0.05,0,0,0.05,60.900000000000006,0)" xlink:href="#z"/><use transform="matrix(0.05,0,0,0.05,69.9,0)" xlink:href="#q"/><use transform="matrix(0.05,0,0,0.05,79.9,0)" xlink:href="#r"/><use transform="matrix(0.05,0,0,0.05,84.9,0)" xlink:href="#s"/><use transform="matrix(0.05,0,0,0.05,94.9,0)" xlink:href="#t"/></g><path d="M103-251c84 0 111 97 45 133-19 10-37 24-39 52H78c0-63 77-55 77-114 0-30-21-42-52-43-32 0-53 17-56 46l-32-2c7-45 34-72 88-72zM77 0v-35h34V0H77" id="O"/><g id="m"><use transform="matrix(0.05,0,0,0.05,0,0)" xlink:href="#F"/><use transform="matrix(0.05,0,0,0.05,12.950000000000001,0)" xlink:href="#q"/><use transform="matrix(0.05,0,0,0.05,22.950000000000003,0)" xlink:href="#t"/><use transform="matrix(0.05,0,0,0.05,32.95,0)" xlink:href="#q"/><use transform="matrix(0.05,0,0,0.05,42.95,0)" xlink:href="#J"/><use transform="matrix(0.05,0,0,0.05,52.95,0)" xlink:href="#r"/><use transform="matrix(0.05,0,0,0.05,57.95,0)" xlink:href="#O"/></g><path d="M137-103V0h-34v-103L8-248h37l75 118 75-118h37" id="P"/><g id="n"><use transform="matrix(0.05,0,0,0.05,0,0)" xlink:href="#P"/><use transform="matrix(0.05,0,0,0.05,10.35,0)" xlink:href="#q"/><use transform="matrix(0.05,0,0,0.05,20.35,0)" xlink:href="#z"/></g><path d="M190 0L58-211 59 0H30v-248h39L202-35l-2-213h31V0h-41" id="Q"/><g id="o"><use transform="matrix(0.05,0,0,0.05,0,0)" xlink:href="#Q"/><use transform="matrix(0.05,0,0,0.05,12.950000000000001,0)" xlink:href="#D"/></g></defs></g></svg>