<?xml version="1.0" encoding="utf-8"?><svg xmlns:sc="https://github.com/svenboulanger/SimpleCircuit" width="1505" height="860" viewBox="-61 -39 301.95 172.99" xmlns="http://www.w3.org/2000/svg"><style>g {
    stroke: black;
    stroke-width: 0.5pt;
    fill: none;
    stroke-linecap: round;
    stroke-linejoin: round;
}
text { fill: black; stroke: none; }
.marker { fill: black; }
.diagram { fill: white; }
.annotation { stroke: #6600cc; }
.annotation text { fill: #6600cc; }

[id^=sim].diagram path { stroke: #096; }
[id^=sim].diagram text { fill: #096; }
[id^=sim].grey path { stroke: #aaa; }
[id^=sim].grey text { fill: #aaa; }
.endcss</style><metadata><sc:version>1.8.4.0</sc:version></metadata><metadata><sc:script><![CDATA[
.css
[id^=sim].diagram path { stroke: #096; }
[id^=sim].diagram text { fill: #096; }
[id^=sim].grey path { stroke: #aaa; }
[id^=sim].grey text { fill: #aaa; }
.endcss
.property ENT r=2 w=100
.property wire r=3

.section ec
    |ec "IEntityCollection\n(Circuit)" r=3 mt=20 anchor1="ni" ml=10 mr=10|
    ENT1("IEntity\n(Resistor)")
    ENT2("IEntity\n(Capacitor)")
    ENT3("IEntity\n(VoltageSource)")
    ||
.ends

.section sim
    |sim "ISimulation\n(Transient)" r=3 mt=20 anchor1="ni" ml=10 mr=10|
    ENT1("IBiasingBehavior\n(Resistor biasing behavior)")
    ENT2("ITimeBehavior\n(Capacitor time behavior)")
    ENT3("IBiasingBehavior\n(Voltage source biasing behavior)")
    ENT4("ITimeBehavior\n(Voltage source time behavior)")
    ENT5("IBehavior\n...", grey)
    ||
.ends

ec/ENT1 <r +30 arrow> sim/ENT1
ec/ENT2 <r +30 arrow> sim/ENT2
ec/ENT3 <r +30 x r +30 arrow> sim/ENT3
X <d r arrow> sim/ENT4

Xstart <l +30> DIR(flip, "ITemperatureBehavior?\nIBiasingBehavior?\nITimeBehavior?") <l +30 arrow> Xend
(xy sim/ENT1 <l 60 u 20> Xstart)
(x ec/ENT1 <r 60 u 20> Xend)

.options minimumwirelength = 30
(xy ec/ENT1 <d> ec/ENT2 <d> ec/ENT3)
(xy sim/ENT1 <d> sim/ENT2 <d> sim/ENT3 <d> sim/ENT4 <d> sim/ENT5)

]]></sc:script></metadata><g class="annotation" id="sim"><path d="M122.95,-28 h114 c1.66,0 3,1.34 3,3 v154.99 c0,1.66 -1.34,3 -3,3 h-114 c-1.66,0 -3,-1.34 -3,-3 v-154.99 c0,-1.66 1.34,-3 3,-3 Z" /><text class="lbl"><tspan style="font-family:Arial;font-size:4pt;" x="166.75" y="-23">ISimulation</tspan><tspan style="font-family:Arial;font-size:4pt;" x="167.05" y="-17">(Transient)</tspan></text></g><g class="annotation" id="ec"><path d="M-57,-28 h114 c1.66,0 3,1.34 3,3 v94.99 c0,1.66 -1.34,3 -3,3 h-114 c-1.66,0 -3,-1.34 -3,-3 v-94.99 c0,-1.66 1.34,-3 3,-3 Z" /><text class="lbl"><tspan style="font-family:Arial;font-size:4pt;" x="-19.13" y="-23">IEntityCollection</tspan><tspan style="font-family:Arial;font-size:4pt;" x="-9.44" y="-17">(Circuit)</tspan></text></g><g class="wire" id="w-1"><path class="wire" d="M50,0 h79.95" /><polygon class="marker arrow" points="127.45,-1 129.95,0 127.45,1" /></g><g class="wire" id="w-2"><path class="wire" d="M50,30 h79.95" /><polygon class="marker arrow" points="127.45,29 129.95,30 127.45,31" /></g><g class="wire" id="w-3"><path class="wire" d="M50,59.99 h49.95" /></g><g class="wire" id="w-4"><path class="wire" d="M99.95,59.99 h30" /><polygon class="marker arrow" points="127.45,58.99 129.95,59.99 127.45,60.99" /></g><g class="wire" id="w-5"><path class="wire" d="M99.95,59.99 v26.99 C99.95,88.65 101.3,89.99 102.95,89.99 h27" /><polygon class="marker arrow" points="127.45,88.99 129.95,89.99 127.45,90.99" /></g><g class="wire" id="w-6"><path class="wire" d="M119.95,-20 h-29.98" /></g><g class="wire" id="w-7"><path class="wire" d="M89.98,-20 h-29.98" /><polygon class="marker arrow" points="62.5,-19 60,-20 62.5,-21" /></g><g class="entity diagram" id="ec/ENT1"><path class="erd" d="M-48,-8 h96 c1.1,0 2,0.9 2,2 v12 c0,1.1 -0.9,2 -2,2 h-96 c-1.1,0 -2,-0.9 -2,-2 v-12 c0,-1.1 0.9,-2 2,-2 Z" /><text class="header"><tspan style="font-family:Arial;font-size:4pt;" x="-7.57" y="-1.5">IEntity</tspan><tspan style="font-family:Arial;font-size:4pt;" x="-11.66" y="4.5">(Resistor)</tspan></text></g><g class="entity diagram" id="ec/ENT2"><path class="erd" d="M-48,22 h96 c1.1,0 2,0.9 2,2 v12 c0,1.1 -0.9,2 -2,2 h-96 c-1.1,0 -2,-0.9 -2,-2 v-12 c0,-1.1 0.9,-2 2,-2 Z" /><text class="header"><tspan style="font-family:Arial;font-size:4pt;" x="-7.57" y="28.5">IEntity</tspan><tspan style="font-family:Arial;font-size:4pt;" x="-13.29" y="34.5">(Capacitor)</tspan></text></g><g class="entity diagram" id="ec/ENT3"><path class="erd" d="M-48,51.99 h96 c1.1,0 2,0.9 2,2 v12 c0,1.1 -0.9,2 -2,2 h-96 c-1.1,0 -2,-0.9 -2,-2 v-12 c0,-1.1 0.9,-2 2,-2 Z" /><text class="header"><tspan style="font-family:Arial;font-size:4pt;" x="-7.57" y="58.49">IEntity</tspan><tspan style="font-family:Arial;font-size:4pt;" x="-19.22" y="64.49">(VoltageSource)</tspan></text></g><g class="entity diagram" id="sim/ENT1"><path class="erd" d="M131.95,-8 h96 c1.1,0 2,0.9 2,2 v12 c0,1.1 -0.9,2 -2,2 h-96 c-1.1,0 -2,-0.9 -2,-2 v-12 c0,-1.1 0.9,-2 2,-2 Z" /><text class="header"><tspan style="font-family:Arial;font-size:4pt;" x="159.84" y="-1.5">IBiasingBehavior</tspan><tspan style="font-family:Arial;font-size:4pt;" x="148.14" y="4.5">(Resistor biasing behavior)</tspan></text></g><g class="entity diagram" id="sim/ENT2"><path class="erd" d="M131.95,22 h96 c1.1,0 2,0.9 2,2 v12 c0,1.1 -0.9,2 -2,2 h-96 c-1.1,0 -2,-0.9 -2,-2 v-12 c0,-1.1 0.9,-2 2,-2 Z" /><text class="header"><tspan style="font-family:Arial;font-size:4pt;" x="162.76" y="28.5">ITimeBehavior</tspan><tspan style="font-family:Arial;font-size:4pt;" x="149.92" y="34.5">(Capacitor time behavior)</tspan></text></g><g class="entity diagram" id="sim/ENT3"><path class="erd" d="M131.95,51.99 h96 c1.1,0 2,0.9 2,2 v12 c0,1.1 -0.9,2 -2,2 h-96 c-1.1,0 -2,-0.9 -2,-2 v-12 c0,-1.1 0.9,-2 2,-2 Z" /><text class="header"><tspan style="font-family:Arial;font-size:4pt;" x="159.84" y="58.49">IBiasingBehavior</tspan><tspan style="font-family:Arial;font-size:4pt;" x="140.28" y="64.49">(Voltage source biasing behavior)</tspan></text></g><g class="entity diagram" id="sim/ENT4"><path class="erd" d="M131.95,81.99 h96 c1.1,0 2,0.9 2,2 v12 c0,1.1 -0.9,2 -2,2 h-96 c-1.1,0 -2,-0.9 -2,-2 v-12 c0,-1.1 0.9,-2 2,-2 Z" /><text class="header"><tspan style="font-family:Arial;font-size:4pt;" x="162.76" y="88.49">ITimeBehavior</tspan><tspan style="font-family:Arial;font-size:4pt;" x="143.7" y="94.49">(Voltage source time behavior)</tspan></text></g><g class="entity grey diagram" id="sim/ENT5"><path class="erd" d="M131.95,111.99 h96 c1.1,0 2,0.9 2,2 v12 c0,1.1 -0.9,2 -2,2 h-96 c-1.1,0 -2,-0.9 -2,-2 v-12 c0,-1.1 0.9,-2 2,-2 Z" /><text class="header"><tspan style="font-family:Arial;font-size:4pt;" x="168.58" y="118.99">IBehavior</tspan><tspan style="font-family:Arial;font-size:4pt;" x="177.47" y="124.99">...</tspan></text></g><g class="point dot" id="X-Q1"><circle cx="99.95" cy="59.99" r="1" class="marker dot wire" /></g><g class="direction flip" id="DIR-1"><text class="lbl"><tspan style="font-family:Arial;font-size:4pt;" x="62.26" y="-34">ITemperatureBehavior?</tspan><tspan style="font-family:Arial;font-size:4pt;" x="68.48" y="-28">IBiasingBehavior?</tspan><tspan style="font-family:Arial;font-size:4pt;" x="71.39" y="-22">ITimeBehavior?</tspan></text></g></svg>