<?xml version="1.0" encoding="utf-8"?><svg xmlns:sc="https://github.com/svenboulanger/SimpleCircuit" width="1140" height="1080" viewBox="-97.43 -16 228.42 216.93" xmlns="http://www.w3.org/2000/svg"><style>g {
    stroke: black;
    stroke-width: 0.5pt;
    fill: none;
    stroke-linecap: round;
    stroke-linejoin: round;
}
text { fill: black; stroke: none; }
.marker { fill: black; }
.dashed { stroke-dasharray: 2 2; }
.diagram { fill: white; }

.process path { fill: #fff7c3; }
.decision path { fill: #bfffcc; }
.terminator path { fill: #2393e2; }
.terminator text { fill: white; }
.io path { fill: #ffb0ac; }
#FTerror path { fill: #d72d00; }
.endcss</style><metadata><sc:version>1.8.4.0</sc:version></metadata><metadata><sc:script><![CDATA[
.css
.process path { fill: #fff7c3; }
.decision path { fill: #bfffcc; }
.terminator path { fill: #2393e2; }
.terminator text { fill: white; }
.io path { fill: #ffb0ac; }
#FTerror path { fill: #d72d00; }
.endcss
.property FP radius=3 width=100
.property FD rx=2 ry=5 width=100 height=30
.property FIO width=100 r=2
.property FT width=50 height=15
.property wire r=3
.variant X -dot

* Initialization
FT("Iterate") <d arrow> FPreset
FPreset("Reset Y-matrix\nReset right-hand side vector") <d arrow> FPload
FPload("Load Y-matrix\nLoad right-hand side vector") <d arrow> FPfactor
FPfactor("Factor Y-matrix (LU decomposition)") <d arrow> FPsolve
FPsolve("Solve Y-matrix and\n right-hand side vector") <d arrow> FPupdate
FPupdate("Update behaviors with new solution") <d arrow> FDconv
FDconv("Have we converged enough?") <r> DIR("No") <r u l arrow> FPreset
FDconv <d> DIR("Yes") <d arrow> FT("Finished")

* Behaviors
FIO("IBiasingBehavior list") <r dashed arrow> FPload
FIO("IBiasingUpdateBehavior list") <r dashed arrow> FPupdate
FIO("IConvergenceBehavior list") <r dashed arrow> FDconv
(x FIO)

]]></sc:script></metadata><g class="wire" id="w-1"><path class="wire" d="M60,0 v10" /><polygon class="marker arrow" points="61,7.5 60,10 59,7.5" /></g><g class="wire" id="w-2"><path class="wire" d="M60,25 v9.99" /><polygon class="marker arrow" points="61,32.49 60,34.99 59,32.49" /></g><g class="wire" id="w-3"><path class="wire" d="M60,49.99 v9.99" /><polygon class="marker arrow" points="61,57.47 60,59.97 59,57.47" /></g><g class="wire" id="w-4"><path class="wire" d="M60,74.97 v9.99" /><polygon class="marker arrow" points="61,82.46 60,84.96 59,82.46" /></g><g class="wire" id="w-5"><path class="wire" d="M60,99.96 v9.99" /><polygon class="marker arrow" points="61,107.44 60,109.94 59,107.44" /></g><g class="wire" id="w-6"><path class="wire" d="M60,124.94 v9.99" /><polygon class="marker arrow" points="61,132.43 60,134.93 59,132.43" /></g><g class="wire" id="w-7"><path class="wire" d="M110,149.93 h10" /></g><g class="wire" id="w-8"><path class="wire" d="M120,149.93 h7 C128.65,149.93 129.99,148.59 129.99,146.93 v-126.43 C129.99,18.84 128.65,17.5 126.99,17.5 h-16.99" /><polygon class="marker arrow" points="112.5,18.5 110,17.5 112.5,16.5" /></g><g class="wire" id="w-9"><path class="wire" d="M60,164.93 v10" /></g><g class="wire" id="w-10"><path class="wire" d="M60,174.93 v10" /><polygon class="marker arrow" points="61,182.43 60,184.93 59,182.43" /></g><g class="wire dashed" id="w-11"><path class="wire dashed" d="M-0,42.49 h10" /><polygon class="marker arrow" points="7.5,41.49 10,42.49 7.5,43.49" /></g><g class="wire dashed" id="w-12"><path class="wire dashed" d="M-0,117.44 h10" /><polygon class="marker arrow" points="7.5,116.44 10,117.44 7.5,118.44" /></g><g class="wire dashed" id="w-13"><path class="wire dashed" d="M-0,149.93 h10" /><polygon class="marker arrow" points="7.5,148.93 10,149.93 7.5,150.93" /></g><g class="terminator diagram" id="FT-1"><path d="M42.5,-15 h35 C81.64,-15 85,-11.64 85,-7.5 85,-3.36 81.64,0 77.5,0 h-35 C38.36,0 35,-3.36 35,-7.5 35,-11.64 38.36,-15 42.5,-15 Z" /><text class="lbl"><tspan style="font-family:Arial;font-size:4pt;" x="52.43" y="-5.5">Iterate</tspan></text></g><g class="process diagram" id="FPreset"><path d="M13,10 h94 c1.66,0 3,1.34 3,3 v9 c0,1.66 -1.34,3 -3,3 h-94 c-1.66,0 -3,-1.34 -3,-3 v-9 c0,-1.66 1.34,-3 3,-3 Z" /><text class="lbl"><tspan style="font-family:Arial;font-size:4pt;" x="42.45" y="16">Reset Y-matrix</tspan><tspan style="font-family:Arial;font-size:4pt;" x="26.56" y="22">Reset right-hand side vector</tspan></text></g><g class="process diagram" id="FPload"><path d="M13,34.99 h94 c1.66,0 3,1.34 3,3 v9 c0,1.66 -1.34,3 -3,3 h-94 c-1.66,0 -3,-1.34 -3,-3 v-9 c0,-1.66 1.34,-3 3,-3 Z" /><text class="lbl"><tspan style="font-family:Arial;font-size:4pt;" x="43.49" y="40.99">Load Y-matrix</tspan><tspan style="font-family:Arial;font-size:4pt;" x="27.59" y="46.99">Load right-hand side vector</tspan></text></g><g class="process diagram" id="FPfactor"><path d="M13,59.97 h94 c1.66,0 3,1.34 3,3 v9 c0,1.66 -1.34,3 -3,3 h-94 c-1.66,0 -3,-1.34 -3,-3 v-9 c0,-1.66 1.34,-3 3,-3 Z" /><text class="lbl"><tspan style="font-family:Arial;font-size:4pt;" x="18.07" y="68.97">Factor Y-matrix (LU decomposition)</tspan></text></g><g class="process diagram" id="FPsolve"><path d="M13,84.96 h94 c1.66,0 3,1.34 3,3 v9 c0,1.66 -1.34,3 -3,3 h-94 c-1.66,0 -3,-1.34 -3,-3 v-9 c0,-1.66 1.34,-3 3,-3 Z" /><text class="lbl"><tspan style="font-family:Arial;font-size:4pt;" x="37.71" y="90.96">Solve Y-matrix and</tspan><tspan style="font-family:Arial;font-size:4pt;" x="34.26" y="96.96"> right-hand side vector</tspan></text></g><g class="process diagram" id="FPupdate"><path d="M13,109.94 h94 c1.66,0 3,1.34 3,3 v9 c0,1.66 -1.34,3 -3,3 h-94 c-1.66,0 -3,-1.34 -3,-3 v-9 c0,-1.66 1.34,-3 3,-3 Z" /><text class="lbl"><tspan style="font-family:Arial;font-size:4pt;" x="18.06" y="118.94">Update behaviors with new solution</tspan></text></g><g class="decision diagram" id="FDconv"><path d="M11.47,148 l47.21,-12.89 C59.54,134.87 60.45,134.87 61.32,135.11 l47.21,12.89 C109.4,148.24 110,149.03 110,149.93 110,150.83 109.4,151.62 108.53,151.86 l-47.21,12.89 C60.45,164.99 59.54,164.99 58.68,164.75 l-47.21,-12.89 C10.6,151.62 10,150.83 10,149.93 10,149.03 10.6,148.24 11.47,148" /><text class="lbl"><tspan style="font-family:Arial;font-size:4pt;" x="25.31" y="151.43">Have we converged enough?</tspan></text></g><g class="direction" id="DIR-2"><text class="lbl"><tspan style="font-family:Arial;font-size:4pt;" x="116.57" y="147.93">No</tspan></text></g><g class="direction" id="DIR-3"><text class="lbl"><tspan style="font-family:Arial;font-size:4pt;" x="62" y="176.93">Yes</tspan></text></g><g class="terminator diagram" id="FT-4"><path d="M42.5,184.93 h35 C81.64,184.93 85,188.28 85,192.43 85,196.57 81.64,199.93 77.5,199.93 h-35 C38.36,199.93 35,196.57 35,192.43 35,188.28 38.36,184.93 42.5,184.93 Z" /><text class="lbl"><tspan style="font-family:Arial;font-size:4pt;" x="49.91" y="194.43">Finished</tspan></text></g><g class="io diagram" id="FIO-5"><path d="M-94.33,49.32 C-94.97,49.32 -95.58,49.01 -95.96,48.48 -96.33,47.95 -96.43,47.28 -96.21,46.66 l3.85,-11 C-92.08,34.86 -91.33,34.32 -90.48,34.32 h90.51 C0.68,34.32 1.29,34.64 1.67,35.17 2.04,35.7 2.14,36.37 1.92,36.99 l-3.85,11 C-2.21,48.79 -2.96,49.32 -3.81,49.32 Z" /><text class="lbl"><tspan style="font-family:Arial;font-size:4pt;" x="-71.4" y="43.32">IBiasingBehavior list</tspan></text></g><g class="io diagram" id="FIO-6"><path d="M-94.33,124.28 C-94.97,124.28 -95.58,123.97 -95.96,123.44 -96.33,122.91 -96.43,122.23 -96.21,121.62 l3.85,-11 C-92.08,109.82 -91.33,109.28 -90.48,109.28 h90.51 C0.68,109.28 1.29,109.6 1.67,110.12 2.04,110.65 2.14,111.33 1.92,111.94 l-3.85,11 C-2.21,123.74 -2.96,124.28 -3.81,124.28 Z" /><text class="lbl"><tspan style="font-family:Arial;font-size:4pt;" x="-79.99" y="118.28">IBiasingUpdateBehavior list</tspan></text></g><g class="io diagram" id="FIO-7"><path d="M-94.33,156.77 C-94.97,156.77 -95.58,156.45 -95.96,155.93 -96.33,155.4 -96.43,154.72 -96.21,154.11 l3.85,-11 C-92.08,142.31 -91.33,141.77 -90.48,141.77 h90.51 C0.68,141.77 1.29,142.08 1.67,142.61 2.04,143.14 2.14,143.82 1.92,144.43 l-3.85,11 C-2.21,156.23 -2.96,156.77 -3.81,156.77 Z" /><text class="lbl"><tspan style="font-family:Arial;font-size:4pt;" x="-78.51" y="150.77">IConvergenceBehavior list</tspan></text></g></svg>