<?xml version="1.0" encoding="utf-8"?><svg xmlns:sc="https://github.com/svenboulanger/SimpleCircuit" width="1570" height="705" viewBox="-97.43 -16 314.85 141.99" xmlns="http://www.w3.org/2000/svg"><style>g {
    stroke: black;
    stroke-width: 0.5pt;
    fill: none;
    stroke-linecap: round;
    stroke-linejoin: round;
}
text { fill: black; stroke: none; }
.marker { fill: black; }
.dashed { stroke-dasharray: 2 2; }
.diagram { fill: white; }
.annotation { stroke: #6600cc; }
.annotation text { fill: #6600cc; }

.process path { fill: #fff7c3; }
.decision path { fill: #bfffcc; }
.terminator path { fill: #2393e2; }
.terminator text { fill: white; }
.io path { fill: #ffb0ac; }
.io text { fill: #000; }
#FTerror path { fill: #d72d00; }
.endcss</style><metadata><sc:version>1.8.4.0</sc:version></metadata><metadata><sc:script><![CDATA[
.css
.process path { fill: #fff7c3; }
.decision path { fill: #bfffcc; }
.terminator path { fill: #2393e2; }
.terminator text { fill: white; }
.io path { fill: #ffb0ac; }
.io text { fill: #000; }
#FTerror path { fill: #d72d00; }
.endcss
.property FP radius=3 width=100
.property FD rx=2 ry=5 width=100 height=30
.property FIO width=100 r=2
.property FT width=50 height=15
.property wire r=3
.property annotation r=3 anchor1="wnw"
.variant X -dot

* Initialization
FT("Simulation") <d arrow> FPstates
|setup "Setup"|
FPstates("Create simulation states") <d arrow> FPbehaviors
FPbehaviors("Create behaviors") || <d arrow> FPexecute

FPexecute("Execute") <d arrow> FPfinish
FPfinish("Finish/Unsetup\n(clean up)") <d arrow> FT("Stop")

* IO
FIO("IBehaviorContainerCollection") <r dashed arrow> FPbehaviors
FPstates <r dashed arrow> FIO("ISimulationState\n(initialized)") <d dashed> Xsimio
FPbehaviors <r dashed arrow> FIObc("IBehaviorContainerCollection") <d dashed l arrow> FPexecute
(xy Xsimio <0> FIObc)

]]></sc:script></metadata><g class="annotation" id="setup"><path d="M8,5 h104 c1.66,0 3,1.34 3,3 v44 c0,1.66 -1.34,3 -3,3 h-104 c-1.66,0 -3,-1.34 -3,-3 v-44 c0,-1.66 1.34,-3 3,-3 Z" /><text class="lbl"><tspan style="font-family:Arial;font-size:4pt;" x="-9.97" y="12">Setup</tspan></text></g><g class="wire" id="w-1"><path class="wire" d="M60,0 v10" /><polygon class="marker arrow" points="61,7.5 60,10 59,7.5" /></g><g class="wire" id="w-2"><path class="wire" d="M60,25 v10" /><polygon class="marker arrow" points="61,32.5 60,35 59,32.5" /></g><g class="wire" id="w-3"><path class="wire" d="M60,50 v10" /><polygon class="marker arrow" points="61,57.5 60,60 59,57.5" /></g><g class="wire" id="w-4"><path class="wire" d="M60,75 v10" /><polygon class="marker arrow" points="61,82.49 60,84.99 59,82.49" /></g><g class="wire" id="w-5"><path class="wire" d="M60,99.99 v10" /><polygon class="marker arrow" points="61,107.49 60,109.99 59,107.49" /></g><g class="wire dashed" id="w-6"><path class="wire dashed" d="M0,42.5 h10" /><polygon class="marker arrow" points="7.5,41.5 10,42.5 7.5,43.5" /></g><g class="wire dashed" id="w-7"><path class="wire dashed" d="M110,17.5 h10" /><polygon class="marker arrow" points="117.5,16.5 120,17.5 117.5,18.5" /></g><g class="wire dashed" id="w-8"><path class="wire dashed" d="M167.14,25.66 v10" /></g><g class="wire dashed" id="w-9"><path class="wire dashed" d="M110,42.5 h9.99" /><polygon class="marker arrow" points="117.49,41.5 119.99,42.5 117.49,43.5" /></g><g class="wire dashed" id="w-10"><path class="wire dashed" d="M167.14,50.66 v13.84 C167.14,66.15 165.79,67.5 164.14,67.5 h-54.14" /><polygon class="marker arrow" points="112.5,68.5 110,67.5 112.5,66.5" /></g><g class="terminator diagram" id="FT-1"><path d="M42.5,-15 h35 C81.64,-15 85,-11.64 85,-7.5 85,-3.36 81.64,0 77.5,0 h-35 C38.36,0 35,-3.36 35,-7.5 35,-11.64 38.36,-15 42.5,-15 Z" /><text class="lbl"><tspan style="font-family:Arial;font-size:4pt;" x="47.54" y="-5.5">Simulation</tspan></text></g><g class="process diagram" id="FPstates"><path d="M13,10 h94 c1.66,0 3,1.34 3,3 v9 c0,1.66 -1.34,3 -3,3 h-94 c-1.66,0 -3,-1.34 -3,-3 v-9 c0,-1.66 1.34,-3 3,-3 Z" /><text class="lbl"><tspan style="font-family:Arial;font-size:4pt;" x="31.24" y="19.5">Create simulation states</tspan></text></g><g class="process diagram" id="FPbehaviors"><path d="M13,35 h94 c1.66,0 3,1.34 3,3 v9 c0,1.66 -1.34,3 -3,3 h-94 c-1.66,0 -3,-1.34 -3,-3 v-9 c0,-1.66 1.34,-3 3,-3 Z" /><text class="lbl"><tspan style="font-family:Arial;font-size:4pt;" x="39.54" y="44.5">Create behaviors</tspan></text></g><g class="process diagram" id="FPexecute"><path d="M13,60 h94 c1.66,0 3,1.34 3,3 v9 c0,1.66 -1.34,3 -3,3 h-94 c-1.66,0 -3,-1.34 -3,-3 v-9 c0,-1.66 1.34,-3 3,-3 Z" /><text class="lbl"><tspan style="font-family:Arial;font-size:4pt;" x="50.35" y="69.5">Execute</tspan></text></g><g class="process diagram" id="FPfinish"><path d="M13,84.99 h94 c1.66,0 3,1.34 3,3 v9 c0,1.66 -1.34,3 -3,3 h-94 c-1.66,0 -3,-1.34 -3,-3 v-9 c0,-1.66 1.34,-3 3,-3 Z" /><text class="lbl"><tspan style="font-family:Arial;font-size:4pt;" x="42.21" y="90.99">Finish/Unsetup</tspan><tspan style="font-family:Arial;font-size:4pt;" x="48.04" y="96.99">(clean up)</tspan></text></g><g class="terminator diagram" id="FT-2"><path d="M42.5,109.99 h35 C81.64,109.99 85,113.35 85,117.49 85,121.64 81.64,124.99 77.5,124.99 h-35 C38.36,124.99 35,121.64 35,117.49 35,113.35 38.36,109.99 42.5,109.99 Z" /><text class="lbl"><tspan style="font-family:Arial;font-size:4pt;" x="54.5" y="118.99">Stop</tspan></text></g><g class="io diagram" id="FIO-3"><path d="M-94.32,49.34 C-94.97,49.34 -95.58,49.02 -95.96,48.49 -96.33,47.97 -96.43,47.29 -96.21,46.68 l3.85,-11 C-92.08,34.87 -91.32,34.34 -90.47,34.34 h90.51 C0.69,34.34 1.29,34.65 1.67,35.18 2.04,35.71 2.14,36.39 1.93,37 l-3.85,11 C-2.21,48.8 -2.96,49.34 -3.81,49.34 Z" /><text class="lbl"><tspan style="font-family:Arial;font-size:4pt;" x="-81.68" y="43.84">IBehaviorContainerCollection</tspan></text></g><g class="io diagram" id="FIO-4"><path d="M119.96,25.66 C119.31,25.66 118.7,25.35 118.33,24.82 117.95,24.29 117.86,23.61 118.07,23 l3.85,-11 C122.2,11.2 122.96,10.66 123.81,10.66 h90.51 C214.97,10.66 215.58,10.97 215.95,11.5 216.33,12.03 216.42,12.71 216.21,13.32 l-3.85,11 C212.08,25.12 211.32,25.66 210.47,25.66 Z" /><text class="lbl"><tspan style="font-family:Arial;font-size:4pt;" x="147.72" y="16.66">ISimulationState</tspan><tspan style="font-family:Arial;font-size:4pt;" x="154.29" y="22.66">(initialized)</tspan></text></g><g class="io diagram" id="FIObc"><path d="M119.96,50.66 C119.31,50.66 118.7,50.34 118.32,49.82 117.95,49.29 117.85,48.61 118.07,48 l3.85,-11 C122.2,36.2 122.96,35.66 123.81,35.66 h90.51 C214.97,35.66 215.57,35.97 215.95,36.5 216.32,37.03 216.42,37.71 216.2,38.32 l-3.85,11 C212.07,50.12 211.32,50.66 210.47,50.66 Z" /><text class="lbl"><tspan style="font-family:Arial;font-size:4pt;" x="132.6" y="45.16">IBehaviorContainerCollection</tspan></text></g></svg>