<?xml version="1.0" encoding="UTF-8" standalone="no"?>
<!-- Created with Inkscape (http://www.inkscape.org/) -->

<svg
   xmlns:dc="http://purl.org/dc/elements/1.1/"
   xmlns:cc="http://creativecommons.org/ns#"
   xmlns:rdf="http://www.w3.org/1999/02/22-rdf-syntax-ns#"
   xmlns:svg="http://www.w3.org/2000/svg"
   xmlns="http://www.w3.org/2000/svg"
   xmlns:xlink="http://www.w3.org/1999/xlink"
   xmlns:sodipodi="http://sodipodi.sourceforge.net/DTD/sodipodi-0.dtd"
   xmlns:inkscape="http://www.inkscape.org/namespaces/inkscape"
   width="113mm"
   height="113mm"
   viewBox="0 0 400.3937 400.3937"
   id="svg2"
   version="1.1"
   inkscape:version="0.92.2 (5c3e80d, 2017-08-06)"
   sodipodi:docname="logo_full.svg"
   inkscape:export-filename="C:\Users\Sven\Desktop\logo_full.png"
   inkscape:export-xdpi="116.07488"
   inkscape:export-ydpi="116.07488">
  <defs
     id="defs4">
    <linearGradient
       inkscape:collect="always"
       id="linearGradient4182">
      <stop
         style="stop-color:#ffffff;stop-opacity:1"
         offset="0"
         id="stop4184" />
      <stop
         style="stop-color:#929292;stop-opacity:1"
         offset="1"
         id="stop4186" />
    </linearGradient>
    <radialGradient
       inkscape:collect="always"
       xlink:href="#linearGradient4182"
       id="radialGradient4188"
       cx="-194.80606"
       cy="245.9951"
       fx="-194.80606"
       fy="245.9951"
       r="83.458778"
       gradientTransform="matrix(1.2516749,-0.55602415,0.32779917,0.73791394,488.66083,135.68685)"
       gradientUnits="userSpaceOnUse" />
    <radialGradient
       inkscape:collect="always"
       xlink:href="#linearGradient4182"
       id="radialGradient4192"
       gradientUnits="userSpaceOnUse"
       gradientTransform="matrix(1.2516749,-0.55602415,0.32779917,0.73791394,639.67864,207.40768)"
       cx="-194.80606"
       cy="245.9951"
       fx="-194.80606"
       fy="245.9951"
       r="83.458778" />
  </defs>
  <sodipodi:namedview
     id="base"
     pagecolor="#ffffff"
     bordercolor="#666666"
     borderopacity="1.0"
     inkscape:pageopacity="0.0"
     inkscape:pageshadow="2"
     inkscape:zoom="1.979899"
     inkscape:cx="42.710526"
     inkscape:cy="225.97291"
     inkscape:document-units="px"
     inkscape:current-layer="layer1"
     showgrid="false"
     showguides="true"
     inkscape:guide-bbox="true"
     inkscape:snap-bbox="false"
     inkscape:object-nodes="true"
     inkscape:snap-nodes="false"
     inkscape:snap-object-midpoints="true"
     fit-margin-top="0"
     fit-margin-left="0"
     fit-margin-right="0"
     fit-margin-bottom="0"
     inkscape:window-width="3840"
     inkscape:window-height="2035"
     inkscape:window-x="3827"
     inkscape:window-y="-13"
     inkscape:window-maximized="1" />
  <metadata
     id="metadata7">
    <rdf:RDF>
      <cc:Work
         rdf:about="">
        <dc:format>image/svg+xml</dc:format>
        <dc:type
           rdf:resource="http://purl.org/dc/dcmitype/StillImage" />
        <dc:title></dc:title>
      </cc:Work>
    </rdf:RDF>
  </metadata>
  <g
     inkscape:label="Layer 1"
     inkscape:groupmode="layer"
     id="layer1"
     transform="translate(-62.775059,-87.613817)">
    <g
       id="g4194"
       transform="translate(-163.56544,-294.56146)">
      <path
         style="fill:#acd37f;fill-opacity:1;stroke:none;stroke-opacity:1"
         d="m 352.16629,385.85321 c -34.13709,-0.10483 -66.98684,20.50921 -81.8125,51.14258 -8.37473,14.6312 -9.00624,31.64653 -10.6836,47.96289 -1.00984,6.93347 -7.71854,12.1434 -6.59179,19.69532 -0.76914,9.04033 1.00436,18.87106 8.37129,24.93329 6.57453,4.18007 1.7116,12.31632 2.13535,18.62313 -3.92165,42.451 -9.39227,84.89306 -11.74883,127.35764 1.09311,19.18303 19.4489,35.40919 38.64598,33.52952 44.38555,0.92297 88.97253,1.42083 133.32863,-0.51976 18.72475,-3.18733 32.64918,-23.18239 29.00416,-41.95055 -3.51964,-44.45664 -8.54635,-88.84155 -12.86744,-133.2682 6.548,-5.87184 12.67863,-13.48098 11.9861,-22.85485 1.00719,-7.90498 -1.0432,-15.67351 -5.80056,-22.04749 -3.04962,-15.57883 -1.79889,-32.28376 -9.26917,-46.82429 -12.85306,-30.46533 -42.85773,-52.51641 -76.01012,-55.4218 -2.88571,-0.2896 -5.78811,-0.393 -8.6875,-0.35743 z"
         id="path4168"
         inkscape:connector-curvature="0" />
      <path
         sodipodi:nodetypes="cscc"
         inkscape:connector-curvature="0"
         id="path4172"
         d="m 268.21947,484.95084 c 0,-27.27529 11.60972,-88.89342 84.09521,-88.89342 75.00382,0 81.82235,67.60922 81.82235,89.65104 z"
         style="fill:url(#radialGradient4188);fill-opacity:1;fill-rule:evenodd;stroke:none;stroke-width:1px;stroke-linecap:butt;stroke-linejoin:miter;stroke-opacity:1" />
      <path
         style="fill:#000000;fill-opacity:1;stroke:none;stroke-opacity:1"
         d="m 338.68705,385.01513 c -30.83819,4.64842 -56.92344,24.01021 -70.67773,52.45703 -5.69787,11.78439 -7.85958,20.33913 -9.01953,35.70507 -0.54493,7.21876 -1.36872,13.75782 -1.83203,14.53126 -5.68127,9.48408 -5.99551,10.53685 -6.00586,20.15624 -0.0116,10.82315 1.77516,15.67744 8.24609,22.40235 l 3.70313,3.84765 -6.79493,67.43946 c -4.48933,44.55853 -6.64855,69.72088 -6.36328,74.16601 1.03498,16.12715 13.1359,30.42395 29.28711,34.60352 4.03757,1.04483 38.47117,1.5598 73.11328,1.55469 0.18316,-3e-5 0.36372,5e-5 0.54688,0 34.64211,0.005 69.07572,-0.50986 73.11328,-1.55469 16.15121,-4.17957 28.25213,-18.47637 29.28711,-34.60352 0.28527,-4.44513 -1.87395,-29.60748 -6.36328,-74.16601 l -6.79492,-67.43946 3.70312,-3.84765 c 6.47093,-6.72491 8.2577,-11.5792 8.24609,-22.40235 -0.0103,-9.61939 -0.32458,-10.67216 -6.00585,-20.15624 -0.46331,-0.77344 -1.28711,-7.3125 -1.83204,-14.53126 -1.15995,-15.36594 -3.32166,-23.92068 -9.01953,-35.70507 -13.75429,-28.44682 -39.83954,-47.80861 -70.67773,-52.45703 -9.46658,-1.7555 -19.44558,-1.25184 -27.85938,0 z m -55.20118,90.50595 v -2.86329 c 0,-11.00097 8.63844,-31.33233 17.44727,-41.0664 9.09857,-10.05426 20.61682,-17.1859 33.82422,-20.93946 12.00868,-2.6539 24.21084,-3.17882 35.71876,0 13.2074,3.75356 24.72565,10.8852 33.82422,20.93946 8.80882,9.73407 17.44726,30.06543 17.44726,41.0664 v 2.86329 z m 42.06447,-36.31446 c -5.43277,-0.19794 -11.03932,3.13469 -11.73633,10.1836 -0.49156,4.97121 0.96214,8.00129 5.21484,10.86718 3.88156,2.61578 7.10949,2.70547 11.04688,0.30469 4.10122,-2.50067 6.16601,-5.96753 6.16601,-10.35351 0,-7.0743 -5.25864,-10.80402 -10.6914,-11.00196 z m 54.13281,0 c -5.43276,0.19794 -10.69141,3.92766 -10.69141,11.00196 0,4.38598 2.0648,7.85284 6.16602,10.35351 3.93739,2.40078 7.16531,2.31109 11.04687,-0.30469 4.2527,-2.86589 5.70641,-5.89597 5.21485,-10.86718 -0.69702,-7.04891 -6.30357,-10.38154 -11.73633,-10.1836 z m -100.8184,75.25395 c -2.88441,-1.49159 -3.81641,-3.13621 -3.81641,-6.73438 0,-3.5107 1.50911,-5.6454 4.80664,-6.79492 2.07524,-0.72343 37.14804,-1.08562 72.76174,-1.08984 35.6137,0.004 70.6865,0.36641 72.76174,1.08984 3.29753,1.14952 4.80664,3.28422 4.80664,6.79492 0,3.59817 -0.932,5.24279 -3.81641,6.73438 -2.24811,1.16255 -13.26981,1.3653 -73.75197,1.34375 -60.48215,0.0215 -71.50386,-0.1812 -73.75197,-1.34375 z m 8.45512,25.74805 h 13.67773 13.67774 l -0.5879,12.42187 c -0.32416,6.83203 -1.46258,39.42187 -2.52929,72.42187 -1.06671,33 -2.11091,60.52735 -2.32031,61.17188 -0.27616,0.84993 -3.42438,1.17187 -11.46094,1.17188 -9.629,0 -11.62941,-0.27637 -15.25782,-2.10938 -5.46816,-2.76244 -8.4082,-7.21318 -8.4082,-12.72461 0,-4.07864 11.6996,-123.06033 12.71485,-129.30664 z m 46.7906,147.1875 0.0137,-4.92188 c 0.007,-2.70703 1.05544,-34.66407 2.33008,-71.01562 1.27463,-36.35157 2.32287,-67.25391 2.33008,-68.67188 l 0.014,-2.57812 c 9.21224,0 18.42448,0 27.63672,0 l 0.0137,2.57812 c 0.007,1.41797 1.05545,32.32031 2.33008,68.67188 1.27464,36.35155 2.32308,68.30859 2.33008,71.01562 l 0.0137,4.92188 c -12.3374,0 -24.67479,0 -37.01219,0 z m 56.44768,-147.1875 h 13.67773 13.67774 l 0.49414,3.04687 c 1.01525,6.24631 12.71484,125.228 12.71484,129.30664 0,5.51143 -2.94003,9.96217 -8.4082,12.72461 -3.6284,1.83301 -5.62881,2.10938 -15.25782,2.10938 -8.03656,-10e-6 -11.18478,-0.32195 -11.46093,-1.17188 -0.2094,-0.64453 -1.25361,-28.17188 -2.32031,-61.17188 -1.06671,-33 -2.20514,-65.58984 -2.5293,-72.42187 z"
         id="path4170"
         inkscape:connector-curvature="0"
         sodipodi:nodetypes="cssssccsssccsssccsssscccssccssccssssssssssssssscssccscccscsssccccsccccscccccccssscsccc" />
      <path
         inkscape:connector-curvature="0"
         id="path4154"
         d="m 500.00752,454.83945 c -34.13709,-0.10483 -66.98684,20.50921 -81.8125,51.14258 -8.37473,14.6312 -9.00624,31.64653 -10.6836,47.96289 -1.00984,6.93347 -7.71854,12.1434 -6.59179,19.69532 -0.76914,9.04033 1.00436,18.87106 8.37129,24.93329 6.57453,4.18007 1.7116,12.31632 2.13535,18.62313 -3.92165,42.451 -9.39227,84.89306 -11.74883,127.35764 1.09311,19.18303 19.4489,35.40919 38.64598,33.52952 44.38555,0.92297 88.97253,1.42083 133.32863,-0.51976 18.72475,-3.18733 32.64918,-23.18239 29.00416,-41.95055 -3.51964,-44.45664 -8.54635,-88.84155 -12.86744,-133.2682 6.548,-5.87184 12.67863,-13.48098 11.9861,-22.85485 1.00719,-7.90498 -1.0432,-15.67351 -5.80056,-22.04749 -3.04962,-15.57883 -1.79889,-32.28376 -9.26917,-46.82429 -12.85306,-30.46533 -42.85773,-52.51641 -76.01012,-55.4218 -2.88571,-0.2896 -5.78811,-0.393 -8.6875,-0.35743 z"
         style="fill:#ffffff;fill-opacity:1;stroke:none;stroke-opacity:1" />
      <path
         style="fill:url(#radialGradient4192);fill-opacity:1;fill-rule:evenodd;stroke:none;stroke-width:1px;stroke-linecap:butt;stroke-linejoin:miter;stroke-opacity:1"
         d="m 419.23728,556.67167 c 0,-27.27529 11.60972,-88.89342 84.09521,-88.89342 75.00382,0 81.82235,67.60922 81.82235,89.65104 z"
         id="path4190"
         inkscape:connector-curvature="0"
         sodipodi:nodetypes="cscc" />
      <path
         sodipodi:nodetypes="cssssccsssccsssccsssscccssccssccssssssssssssssscssccscccscsssccccsccccscccccccssscsccc"
         inkscape:connector-curvature="0"
         id="path4147"
         d="m 486.52828,454.00137 c -30.83819,4.64842 -56.92344,24.01021 -70.67773,52.45703 -5.69787,11.78439 -7.85958,20.33913 -9.01953,35.70507 -0.54493,7.21876 -1.36872,13.75782 -1.83203,14.53126 -5.68127,9.48408 -5.99551,10.53685 -6.00586,20.15624 -0.0116,10.82315 1.77516,15.67744 8.24609,22.40235 l 3.70313,3.84765 -6.79493,67.43946 c -4.48933,44.55853 -6.64855,69.72088 -6.36328,74.16601 1.03498,16.12715 13.1359,30.42395 29.28711,34.60352 4.03757,1.04483 38.47117,1.5598 73.11328,1.55469 0.18316,-3e-5 0.36372,5e-5 0.54688,0 34.64211,0.005 69.07572,-0.50986 73.11328,-1.55469 16.15121,-4.17957 28.25213,-18.47637 29.28711,-34.60352 0.28527,-4.44513 -1.87395,-29.60748 -6.36328,-74.16601 l -6.79492,-67.43946 3.70312,-3.84765 c 6.47093,-6.72491 8.2577,-11.5792 8.24609,-22.40235 -0.0103,-9.61939 -0.32458,-10.67216 -6.00585,-20.15624 -0.46331,-0.77344 -1.28711,-7.3125 -1.83204,-14.53126 -1.15995,-15.36594 -3.32166,-23.92068 -9.01953,-35.70507 -13.75429,-28.44682 -39.83954,-47.80861 -70.67773,-52.45703 -9.46658,-1.7555 -19.44558,-1.25184 -27.85938,0 z m -55.20118,90.50595 v -2.86329 c 0,-11.00097 8.63844,-31.33233 17.44727,-41.0664 9.09857,-10.05426 20.61682,-17.1859 33.82422,-20.93946 12.00868,-2.6539 24.21084,-3.17882 35.71876,0 13.2074,3.75356 24.72565,10.8852 33.82422,20.93946 8.80882,9.73407 17.44726,30.06543 17.44726,41.0664 v 2.86329 z m 42.06447,-36.31446 c -5.43277,-0.19794 -11.03932,3.13469 -11.73633,10.1836 -0.49156,4.97121 0.96214,8.00129 5.21484,10.86718 3.88156,2.61578 7.10949,2.70547 11.04688,0.30469 4.10122,-2.50067 6.16601,-5.96753 6.16601,-10.35351 0,-7.0743 -5.25864,-10.80402 -10.6914,-11.00196 z m 54.13281,0 c -5.43276,0.19794 -10.69141,3.92766 -10.69141,11.00196 0,4.38598 2.0648,7.85284 6.16602,10.35351 3.93739,2.40078 7.16531,2.31109 11.04687,-0.30469 4.2527,-2.86589 5.70641,-5.89597 5.21485,-10.86718 -0.69702,-7.04891 -6.30357,-10.38154 -11.73633,-10.1836 z m -100.8184,75.25395 c -2.88441,-1.49159 -3.81641,-3.13621 -3.81641,-6.73438 0,-3.5107 1.50911,-5.6454 4.80664,-6.79492 2.07524,-0.72343 37.14804,-1.08562 72.76174,-1.08984 35.6137,0.004 70.6865,0.36641 72.76174,1.08984 3.29753,1.14952 4.80664,3.28422 4.80664,6.79492 0,3.59817 -0.932,5.24279 -3.81641,6.73438 -2.24811,1.16255 -13.26981,1.3653 -73.75197,1.34375 -60.48215,0.0215 -71.50386,-0.1812 -73.75197,-1.34375 z m 8.45512,25.74805 h 13.67773 13.67774 l -0.5879,12.42187 c -0.32416,6.83203 -1.46258,39.42187 -2.52929,72.42187 -1.06671,33 -2.11091,60.52735 -2.32031,61.17188 -0.27616,0.84993 -3.42438,1.17187 -11.46094,1.17188 -9.629,0 -11.62941,-0.27637 -15.25782,-2.10938 -5.46816,-2.76244 -8.4082,-7.21318 -8.4082,-12.72461 0,-4.07864 11.6996,-123.06033 12.71485,-129.30664 z m 46.7906,147.1875 0.0137,-4.92188 c 0.007,-2.70703 1.05544,-34.66407 2.33008,-71.01562 1.27463,-36.35157 2.32287,-67.25391 2.33008,-68.67188 l 0.014,-2.57812 c 9.21224,0 18.42448,0 27.63672,0 l 0.0137,2.57812 c 0.007,1.41797 1.05545,32.32031 2.33008,68.67188 1.27464,36.35155 2.32308,68.30859 2.33008,71.01562 l 0.0137,4.92188 c -12.3374,0 -24.67479,0 -37.01219,0 z m 56.44768,-147.1875 h 13.67773 13.67774 l 0.49414,3.04687 c 1.01525,6.24631 12.71484,125.228 12.71484,129.30664 0,5.51143 -2.94003,9.96217 -8.4082,12.72461 -3.6284,1.83301 -5.62881,2.10938 -15.25782,2.10938 -8.03656,-10e-6 -11.18478,-0.32195 -11.46093,-1.17188 -0.2094,-0.64453 -1.25361,-28.17188 -2.32031,-61.17188 -1.06671,-33 -2.20514,-65.58984 -2.5293,-72.42187 z"
         style="fill:#000000;fill-opacity:1;stroke:none;stroke-opacity:1" />
    </g>
  </g>
</svg>
