<?xml version="1.0" encoding="UTF-8" standalone="no"?>
<svg
   xmlns:dc="http://purl.org/dc/elements/1.1/"
   xmlns:cc="http://creativecommons.org/ns#"
   xmlns:rdf="http://www.w3.org/1999/02/22-rdf-syntax-ns#"
   xmlns:svg="http://www.w3.org/2000/svg"
   xmlns="http://www.w3.org/2000/svg"
   xmlns:xlink="http://www.w3.org/1999/xlink"
   xmlns:sodipodi="http://sodipodi.sourceforge.net/DTD/sodipodi-0.dtd"
   xmlns:inkscape="http://www.inkscape.org/namespaces/inkscape"
   version="1.0"
   width="38.000000pt"
   height="38.000000pt"
   viewBox="0 0 172.000000 172.000000"
   preserveAspectRatio="xMidYMid meet"
   id="svg12"
   sodipodi:docname="favicon.svg"
   inkscape:version="0.92.2 (5c3e80d, 2017-08-06)"
   inkscape:export-filename="D:\Visual Studio\Projects\SpiceSharp\api\favicon.png"
   inkscape:export-xdpi="121.26"
   inkscape:export-ydpi="121.26">
  <defs
     id="defs16">
    <radialGradient
       inkscape:collect="always"
       xlink:href="#linearGradient4182"
       id="radialGradient4188"
       cx="-194.80606"
       cy="245.9951"
       fx="-194.80606"
       fy="245.9951"
       r="83.458778"
       gradientTransform="matrix(0.39247681,-0.17434766,0.10278513,0.23138125,105.47952,-54.06322)"
       gradientUnits="userSpaceOnUse" />
    <linearGradient
       inkscape:collect="always"
       id="linearGradient4182">
      <stop
         style="stop-color:#ffffff;stop-opacity:1"
         offset="0"
         id="stop4184" />
      <stop
         style="stop-color:#929292;stop-opacity:1"
         offset="1"
         id="stop4186" />
    </linearGradient>
    <radialGradient
       inkscape:collect="always"
       xlink:href="#linearGradient4182"
       id="radialGradient4192"
       gradientUnits="userSpaceOnUse"
       gradientTransform="matrix(0.39247681,-0.17434766,0.10278513,0.23138125,152.83286,-31.574343)"
       cx="-194.80606"
       cy="245.9951"
       fx="-194.80606"
       fy="245.9951"
       r="83.458778" />
  </defs>
  <sodipodi:namedview
     pagecolor="#ffffff"
     bordercolor="#666666"
     borderopacity="1"
     objecttolerance="10"
     gridtolerance="10"
     guidetolerance="10"
     inkscape:pageopacity="0"
     inkscape:pageshadow="2"
     inkscape:window-width="3840"
     inkscape:window-height="2275"
     id="namedview14"
     showgrid="false"
     inkscape:zoom="18.631579"
     inkscape:cx="25.363755"
     inkscape:cy="17.916102"
     inkscape:window-x="-13"
     inkscape:window-y="-13"
     inkscape:window-maximized="1"
     inkscape:current-layer="svg12" />
  <metadata
     id="metadata2">
Created by Docfx
<rdf:RDF>
  <cc:Work
     rdf:about="">
    <dc:format>image/svg+xml</dc:format>
    <dc:type
       rdf:resource="http://purl.org/dc/dcmitype/StillImage" />
    <dc:title></dc:title>
  </cc:Work>
</rdf:RDF>
</metadata>
  <path
     inkscape:connector-curvature="0"
     id="path4168"
     d="m 62.68011,24.379269 c -10.704071,-0.03287 -21.004481,6.430895 -25.653234,16.036334 -2.625991,4.587778 -2.824008,9.923127 -3.349964,15.039306 -0.316646,2.174068 -2.420235,3.8077 -2.06693,6.17569 -0.241172,2.834698 0.314929,5.917234 2.624913,7.818115 2.061518,1.310708 0.536691,3.861921 0.669563,5.839493 -1.229678,13.310991 -2.945053,26.619183 -3.683979,39.934423 0.342757,6.01506 6.098423,11.10296 12.117884,10.51356 13.917591,0.28941 27.898342,0.44552 41.806699,-0.16297 5.871357,-0.99943 10.237519,-7.2691 9.094582,-13.15407 C 93.136021,98.479267 91.559839,84.561876 90.204913,70.631398 92.258112,68.790217 94.18044,66.404285 93.96329,63.465002 94.279105,60.986306 93.636183,58.550396 92.144459,56.551762 91.188216,51.666844 91.580396,46.428824 89.238006,41.869477 85.207783,32.316729 75.79948,25.402363 65.404174,24.491345 64.499327,24.400538 63.589246,24.368116 62.68011,24.379269 Z"
     style="fill:#a9a9a9;fill-opacity:1;stroke:none;stroke-width:0.31356129;stroke-opacity:1" />
  <path
     style="fill:url(#radialGradient4188);fill-opacity:1;fill-rule:evenodd;stroke:none;stroke-width:0.31356129px;stroke-linecap:butt;stroke-linejoin:miter;stroke-opacity:1"
     d="m 36.357636,55.452451 c 0,-8.552476 3.640359,-27.873537 26.369003,-27.873537 23.518295,0 25.656323,21.199635 25.656323,28.111097 z"
     id="path4172"
     inkscape:connector-curvature="0"
     sodipodi:nodetypes="cscc" />
  <path
     sodipodi:nodetypes="cssssccsssccsssccsssscccssccssccssssssssssssssscssccscccscsssccccsccccscccccccssscsccc"
     inkscape:connector-curvature="0"
     id="path4170"
     d="m 58.453542,24.11648 c -9.669663,1.457564 -17.848988,7.528672 -22.161801,16.448494 -1.786632,3.695129 -2.46446,6.377564 -2.828176,11.195728 -0.170869,2.263524 -0.429177,4.31392 -0.574453,4.556441 -1.781427,2.973841 -1.87996,3.303949 -1.883206,6.320217 -0.0036,3.393721 0.556622,4.915838 2.585655,7.02451 l 1.161158,1.206474 -2.130627,21.146405 c -1.40768,13.971831 -2.084728,21.861771 -1.995278,23.255591 0.324529,5.05685 4.11891,9.53977 9.183304,10.85032 1.266026,0.32762 12.06307,0.4891 22.925495,0.48749 0.05743,0 0.114049,2e-5 0.171481,0 10.862425,0.002 21.659472,-0.15987 22.925495,-0.48749 5.064394,-1.31055 8.858774,-5.79347 9.183304,-10.85032 0.08945,-1.39382 -0.587598,-9.28376 -1.995278,-23.255591 L 90.889991,70.868344 92.051146,69.66187 c 2.029033,-2.108672 2.589295,-3.630789 2.585655,-7.02451 -0.0032,-3.016268 -0.101776,-3.346376 -1.883203,-6.320217 C 92.608322,56.074622 92.350011,54.024226 92.179142,51.760702 91.815426,46.942538 91.137598,44.260103 89.350966,40.564974 85.038153,31.645152 76.858828,25.574044 67.189165,24.11648 c -2.968353,-0.550457 -6.097381,-0.392529 -8.735623,0 z M 41.144588,52.495643 v -0.897817 c 0,-3.449478 2.70868,-9.824606 5.470789,-12.876834 2.852959,-3.152627 6.464636,-5.388833 10.605966,-6.565804 3.765457,-0.83216 7.591582,-0.996755 11.200021,0 4.141329,1.176971 7.753007,3.413177 10.605966,6.565804 2.762105,3.052228 5.470786,9.427356 5.470786,12.876834 v 0.897817 z m 13.18979,-11.386809 c -1.703507,-0.06207 -3.461504,0.982917 -3.680059,3.193183 -0.154134,1.558779 0.30169,2.508894 1.635172,3.407527 1.217107,0.820207 2.229261,0.84833 3.463874,0.09554 1.285984,-0.784114 1.933422,-1.871187 1.933422,-3.24646 0,-2.218227 -1.648906,-3.387723 -3.352409,-3.44979 z m 16.973954,0 c -1.703503,0.06207 -3.352412,1.231562 -3.352412,3.449789 0,1.375273 0.647441,2.462346 1.933425,3.24646 1.234613,0.752791 2.246764,0.724668 3.463871,-0.09554 1.333482,-0.898633 1.789309,-1.848748 1.635175,-3.407527 -0.218559,-2.210266 -1.976556,-3.25525 -3.680059,-3.193182 z M 39.695584,64.70556 c -0.90444,-0.467705 -1.196679,-0.983394 -1.196679,-2.111641 0,-1.100819 0.473199,-1.770179 1.507176,-2.130624 0.650715,-0.226839 11.648188,-0.340408 22.815266,-0.341731 11.167078,0.0013 22.164551,0.114892 22.815266,0.341731 1.033978,0.360445 1.507176,1.029805 1.507176,2.130624 0,1.128247 -0.292239,1.643936 -1.196678,2.111641 -0.704921,0.364531 -4.160899,0.428105 -23.125764,0.421348 -18.964861,0.0067 -22.420843,-0.05682 -23.125763,-0.421348 z m 2.651198,8.073592 h 4.288807 4.28881 l -0.184343,3.895018 c -0.101644,2.14226 -0.458608,12.361173 -0.793087,22.708696 -0.334479,10.347524 -0.6619,18.979034 -0.72756,19.181134 -0.08659,0.2665 -1.073753,0.36745 -3.593707,0.36746 -3.019282,0 -3.646533,-0.0867 -4.784262,-0.66142 -1.714603,-0.8662 -2.636486,-2.26178 -2.636486,-3.98995 0,-1.2789 3.668542,-38.586956 3.986885,-40.545557 z m 14.671721,46.152308 0.0043,-1.54332 c 0.0022,-0.84881 0.330945,-10.86931 0.730623,-22.267745 0.399675,-11.398446 0.728362,-21.088224 0.730623,-21.532844 l 0.0044,-0.808399 c 2.888602,0 5.777204,0 8.665806,0 l 0.0043,0.808399 c 0.0022,0.44462 0.330949,10.134398 0.730623,21.532844 0.399678,11.398435 0.728428,21.418935 0.730623,22.267745 l 0.0043,1.54332 c -3.868531,0 -7.737059,0 -11.60559,0 z M 74.718311,72.779152 h 4.288807 4.28881 l 0.154943,0.955381 c 0.318343,1.958601 3.986882,39.266657 3.986882,40.545557 0,1.72817 -0.92188,3.12375 -2.636486,3.98995 -1.137726,0.57476 -1.764977,0.66142 -4.784262,0.66142 -2.519954,-1e-5 -3.507114,-0.10096 -3.593704,-0.36746 -0.06566,-0.2021 -0.393084,-8.83361 -0.72756,-19.181134 C 75.361262,89.035343 75.004295,78.81643 74.902651,76.67417 Z"
     style="fill:#000000;fill-opacity:1;stroke:none;stroke-width:0.31356129;stroke-opacity:1" />
  <path
     style="fill:#ffffff;fill-opacity:1;stroke:none;stroke-width:0.31356129;stroke-opacity:1"
     d="m 109.0374,46.010684 c -10.704072,-0.03287 -21.004483,6.430895 -25.653236,16.036334 -2.625991,4.587778 -2.824008,9.923127 -3.349963,15.039306 -0.316647,2.174068 -2.420236,3.807701 -2.066931,6.17569 -0.241172,2.834698 0.314929,5.917234 2.624913,7.818115 2.061518,1.310708 0.536691,3.861922 0.669563,5.839493 -1.229678,13.310988 -2.945052,26.619178 -3.683978,39.934428 0.342757,6.01506 6.098422,11.10295 12.117883,10.51356 13.917589,0.28941 27.898339,0.44552 41.806699,-0.16298 5.87136,-0.99942 10.23752,-7.2691 9.09458,-13.15407 -1.10362,-13.93988 -2.6798,-27.85727 -4.03473,-41.787747 2.0532,-1.841181 3.97553,-4.227113 3.75838,-7.166396 0.31581,-2.478696 -0.32711,-4.914606 -1.81883,-6.91324 -0.95625,-4.884918 -0.56407,-10.122937 -2.90646,-14.682285 -4.03022,-9.552748 -13.43852,-16.467114 -23.83383,-17.378132 -0.90485,-0.09081 -1.81493,-0.123229 -2.72406,-0.112076 z"
     id="path4154"
     inkscape:connector-curvature="0" />
  <path
     sodipodi:nodetypes="cscc"
     inkscape:connector-curvature="0"
     id="path4190"
     d="m 83.710977,77.941328 c 0,-8.552476 3.640358,-27.873537 26.369003,-27.873537 23.5183,0 25.65632,21.199635 25.65632,28.111097 z"
     style="fill:url(#radialGradient4192);fill-opacity:1;fill-rule:evenodd;stroke:none;stroke-width:0.31356129px;stroke-linecap:butt;stroke-linejoin:miter;stroke-opacity:1" />
  <path
     style="fill:#000000;fill-opacity:1;stroke:none;stroke-width:0.31356129;stroke-opacity:1"
     d="m 104.81083,45.747895 c -9.669663,1.457564 -17.848988,7.528672 -22.161801,16.448494 -1.786631,3.695129 -2.46446,6.377564 -2.828175,11.195728 -0.170869,2.263524 -0.429178,4.31392 -0.574454,4.556441 -1.781427,2.973841 -1.87996,3.303949 -1.883205,6.320217 -0.0036,3.393721 0.556621,4.915839 2.585654,7.02451 l 1.161158,1.206474 -2.130627,21.146401 c -1.40768,13.97183 -2.084728,21.86177 -1.995278,23.25559 0.32453,5.05685 4.11891,9.53978 9.183304,10.85033 1.266026,0.32762 12.06307,0.48909 22.925494,0.48749 0.0574,-10e-6 0.11405,2e-5 0.17148,0 10.86243,0.002 21.65947,-0.15987 22.9255,-0.48749 5.06439,-1.31055 8.85877,-5.79348 9.1833,-10.85033 0.0894,-1.39382 -0.5876,-9.28376 -1.99528,-23.25559 l -2.13062,-21.146401 1.16115,-1.206474 c 2.02904,-2.108671 2.5893,-3.630789 2.58566,-7.02451 -0.003,-3.016268 -0.10178,-3.346376 -1.8832,-6.320217 -0.14528,-0.242521 -0.40359,-2.292917 -0.57446,-4.556441 -0.36372,-4.818164 -1.04154,-7.500599 -2.82818,-11.195728 -4.31281,-8.919822 -12.49213,-14.99093 -22.1618,-16.448494 -2.96835,-0.550457 -6.09738,-0.392529 -8.73562,0 z M 87.501876,74.127058 v -0.897817 c 0,-3.449478 2.708681,-9.824606 5.470789,-12.876834 2.852959,-3.152626 6.464637,-5.388833 10.605965,-6.565804 3.76546,-0.83216 7.59158,-0.996755 11.20002,0 4.14133,1.176971 7.75301,3.413178 10.60597,6.565804 2.7621,3.052228 5.47078,9.427356 5.47078,12.876834 v 0.897817 z M 100.69167,62.740249 c -1.70351,-0.06207 -3.461507,0.982917 -3.680063,3.193183 -0.154134,1.558779 0.30169,2.508895 1.635172,3.407527 1.217107,0.820207 2.229261,0.84833 3.463871,0.09554 1.28599,-0.784114 1.93343,-1.871187 1.93343,-3.24646 0,-2.218227 -1.64891,-3.387723 -3.35241,-3.44979 z m 16.97395,0 c -1.7035,0.06207 -3.35241,1.231562 -3.35241,3.449789 0,1.375273 0.64744,2.462346 1.93342,3.24646 1.23462,0.752791 2.24677,0.724668 3.46387,-0.09554 1.33349,-0.898632 1.78931,-1.848748 1.63518,-3.407527 -0.21856,-2.210266 -1.97656,-3.255249 -3.68006,-3.193182 z M 86.052872,86.336975 c -0.90444,-0.467705 -1.196679,-0.983394 -1.196679,-2.111641 0,-1.100819 0.473199,-1.770179 1.507177,-2.130624 0.650715,-0.226839 11.648187,-0.340408 22.81527,-0.341731 11.16707,0.0013 22.16455,0.114892 22.81526,0.341731 1.03398,0.360445 1.50718,1.029805 1.50718,2.130624 0,1.128247 -0.29224,1.643936 -1.19668,2.111641 -0.70492,0.364531 -4.1609,0.428105 -23.12576,0.421348 -18.964866,0.0067 -22.420848,-0.05682 -23.125768,-0.421348 z m 2.651198,8.073592 h 4.288807 4.28881 l -0.184343,3.895018 c -0.101644,2.142265 -0.458608,12.361175 -0.793087,22.708695 -0.334479,10.34752 -0.6619,18.97904 -0.72756,19.18113 -0.08659,0.26651 -1.073753,0.36746 -3.593707,0.36746 -3.019282,0 -3.646533,-0.0867 -4.784262,-0.66142 -1.714603,-0.86619 -2.636486,-2.26177 -2.636486,-3.98994 0,-1.27891 3.668542,-38.586961 3.986885,-40.545562 z m 14.67172,46.152303 0.004,-1.54331 c 0.002,-0.84882 0.33094,-10.86931 0.73062,-22.26775 0.39967,-11.39845 0.72836,-21.088224 0.73062,-21.532844 l 0.004,-0.808399 c 2.88861,0 5.77721,0 8.66581,0 l 0.004,0.808399 c 0.002,0.44462 0.33095,10.134394 0.73063,21.532844 0.39968,11.39844 0.72843,21.41893 0.73062,22.26775 l 0.004,1.54331 c -3.86853,0 -7.73706,0 -11.60559,0 z M 121.0756,94.410567 h 4.28881 4.28881 l 0.15494,0.955381 c 0.31834,1.958601 3.98688,39.266652 3.98688,40.545562 0,1.72817 -0.92188,3.12375 -2.63648,3.98994 -1.13773,0.57476 -1.76498,0.66142 -4.78427,0.66142 -2.51995,0 -3.50711,-0.10095 -3.5937,-0.36746 -0.0657,-0.20209 -0.39308,-8.83361 -0.72756,-19.18113 -0.33448,-10.34752 -0.69145,-20.56643 -0.79309,-22.708695 z"
     id="path4147"
     inkscape:connector-curvature="0"
     sodipodi:nodetypes="cssssccsssccsssccsssscccssccssccssssssssssssssscssccscccscsssccccsccccscccccccssscsccc" />
</svg>
