<?xml version="1.0" encoding="utf-8"?><svg xmlns:sc="https://github.com/svenboulanger/SimpleCircuit" width="500" height="295" viewBox="-15.91 -13 100.2 59.97" xmlns="http://www.w3.org/2000/svg"><style>path, polyline, line, circle, polygon {
    stroke: black;
    stroke-width: 0.5pt;
    fill: none;
    stroke-linecap: round;
    stroke-linejoin: round;
}
.diagram path, .diagram circle, .diagram polygon { fill: white; }
.plane { stroke-width: 1pt; }
.battery .neg { stroke-width: 0.75pt; }
text { font-family: Tahoma, Verdana, Segoe, sans-serif; font-size: 4pt; }
.small tspan { font-size: 0.8em; }
.text-stroke { stroke-width: 0.025em; }
.text-symbol { fill: black; stroke: none; }
.marker { fill: black; }
.marker.erd { fill: white; }
.dotted { stroke-dasharray: 0.5 2; }
.dashed { stroke-dasharray: 2 2; }
</style><metadata><sc:version>1.2.5.0</sc:version></metadata><metadata><sc:script><![CDATA[
GND <u> Xgnd
Xgnd <l u> V("1V") <u> X1("v_1") <r> R("5&#937;") <r> X2
Xgnd <u> R("10&#937;") <u> X2("v_2")
Xgnd <r u> I("1.5A", flip) <u> X3("v_3") <l> R("7&#937;", flip) <l> X2

- X1.angle = 90
- X2.angle = 90
- X3.angle = 90
]]></sc:script></metadata><g class="wire" id="w-1"><path class="wire" d="M31.92 41.97 v-9.99" /></g><g class="wire" id="w-2"><path class="wire" d="M31.92 31.98 h-31.92 v-9.99" /></g><g class="wire" id="w-3"><path class="wire" d="M0 9.99 v-9.99" /></g><g class="wire" id="w-4"><path class="wire" d="M0 0 h9.958" /></g><g class="wire" id="w-5"><path class="wire" d="M21.96 0 h9.958" /></g><g class="wire" id="w-6"><path class="wire" d="M31.92 31.98 v-9.99" /></g><g class="wire" id="w-7"><path class="wire" d="M31.92 9.99 v-9.99" /></g><g class="wire" id="w-8"><path class="wire" d="M31.92 31.98 h31.92 v-9.99" /></g><g class="wire" id="w-9"><path class="wire" d="M63.83 9.99 v-9.99" /></g><g class="wire" id="w-10"><path class="wire" d="M63.83 0 h-9.958" /></g><g class="wire" id="w-11"><path class="wire" d="M41.87 0 h-9.958" /></g><g class="ground" id="GND-1"><path d="M26.92 41.97 h10 M28.92 43.97 h6 M30.92 45.97 h2" /></g><g class="point dot" id="Xgnd"><circle cx="31.92" cy="31.98" r="1" class="marker dot wire" /></g><g class="vs" id="V-2"><circle cx="0" cy="15.99" r="6" /><g class="signs"><path class="plus" d="M-1 12.99 h2 M0 13.99 v-2" /><line x1="-1" y1="18.99" x2="1" y2="18.99" class="minus" /></g><text><tspan text-anchor="end" x="-8" y="17.99"><tspan>1V</tspan></tspan></text></g><g class="point dot" id="X1"><text><tspan text-anchor="middle" x="0" y="-6"><tspan>v</tspan><tspan dy="0.5em" style="font-size: 0.75em">1</tspan></tspan></text></g><g class="resistor" id="R-3"><polyline points="9.958,0 10.96,-4 12.96,4 14.96,-4 16.96,4 18.96,-4 20.96,4 21.96,0" /><text class="lbl"><tspan text-anchor="middle" x="15.96" y="-7"><tspan>5Ω</tspan></tspan></text></g><g class="point dot" id="X2"><circle cx="31.92" cy="0" r="1" class="marker dot wire" /><text><tspan text-anchor="middle" x="31.92" y="-6"><tspan>v</tspan><tspan dy="0.5em" style="font-size: 0.75em">2</tspan></tspan></text></g><g class="resistor" id="R-4"><polyline points="31.92,21.99 27.92,20.99 35.92,18.99 27.92,16.99 35.92,14.99 27.92,12.99 35.92,10.99 31.92,9.99" /><text class="lbl"><tspan text-anchor="end" x="25.92" y="17.99"><tspan>10Ω</tspan></tspan></text></g><g class="cs flip" id="I-5"><circle cx="63.83" cy="15.99" r="6" /><g class="marker arrow"><line x1="63.83" y1="18.99" x2="63.83" y2="12.99" /><polygon class="marker arrow" points="64.83,15.49 63.83,12.99 62.83,15.49" /></g><text><tspan text-anchor="start" x="71.83" y="17.99"><tspan>1.5A</tspan></tspan></text></g><g class="point dot" id="X3"><text><tspan text-anchor="middle" x="63.83" y="-6"><tspan>v</tspan><tspan dy="0.5em" style="font-size: 0.75em">3</tspan></tspan></text></g><g class="resistor flip" id="R-6"><polyline points="53.87,0 52.87,-4 50.87,4 48.87,-4 46.87,4 44.87,-4 42.87,4 41.87,0" /><text class="lbl"><tspan text-anchor="middle" x="47.87" y="-7"><tspan>7Ω</tspan></tspan></text></g></svg>