<?xml version="1.0" encoding="utf-8"?><svg xmlns:sc="https://github.com/svenboulanger/SimpleCircuit" width="490" height="240" viewBox="-14 -11.1 98.73 48.1" xmlns="http://www.w3.org/2000/svg"><style>g {
    stroke: black;
    stroke-width: 0.5pt;
    fill: none;
    stroke-linecap: round;
    stroke-linejoin: round;
}
text { fill: black; stroke: none; }
.marker { fill: black; }
.plane { stroke-width: 1pt; }</style><metadata><sc:version>1.8.4.0</sc:version></metadata><metadata><sc:script><![CDATA[
GND <u> V("V_1") <u r> R("R_1") <r x d> R("R_2") <d> GND
X <r +25 x d> C("C_1") <d> GND
X <r> T("V_out", out)
(y GND)
]]></sc:script></metadata><g class="wire" id="w-1"><path class="wire" d="M0,32 v-10" /></g><g class="wire" id="w-2"><path class="wire" d="M0,10 v-10 h10" /></g><g class="wire" id="w-3"><path class="wire" d="M22,-0 h10" /></g><g class="wire" id="w-4"><path class="wire" d="M32,-0 v10" /></g><g class="wire" id="w-5"><path class="wire" d="M32,22 v10" /></g><g class="wire" id="w-6"><path class="wire" d="M32,-0 h25" /></g><g class="wire" id="w-7"><path class="wire" d="M57,-0 v14.5" /></g><g class="wire" id="w-8"><path class="wire" d="M57,17.5 v14.5" /></g><g class="wire" id="w-9"><path class="wire" d="M57,-0 h10" /></g><g class="ground" id="GND-1"><path d="M-5,32 h10 M-3,34 h6 M-1,36 h2" /></g><g class="vs" id="V-2"><circle cx="0" cy="16" r="6" /><g class="signs"><path class="plus" d="M-1,13 h2 M0,14 v-2" /><line x1="-1" y1="19" x2="1" y2="19" class="minus" /></g><text class="lbl"><tspan style="font-family:Arial;font-size:4pt;" x="-13" y="17.45">V</tspan><tspan style="font-family:Arial;font-size:3.2pt;" x="-9" y="18.55">1</tspan></text></g><g class="resistor" id="R-3"><polyline points="10,-0 11,-4 13,4 15,-4 17,4 19,-4 21,4 22,-0" /><text class="lbl"><tspan style="font-family:Arial;font-size:4pt;" x="13" y="-6.1">R</tspan><tspan style="font-family:Arial;font-size:3.2pt;" x="17" y="-5">1</tspan></text></g><g class="point dot" id="X-Q1"><circle cx="32" cy="-0" r="1" class="marker dot wire" /></g><g class="resistor" id="R-4"><polyline points="32,10 36,11 28,13 36,15 28,17 36,19 28,21 32,22" /><text class="lbl"><tspan style="font-family:Arial;font-size:4pt;" x="37" y="17.45">R</tspan><tspan style="font-family:Arial;font-size:3.2pt;" x="41" y="18.55">2</tspan></text></g><g class="ground" id="GND-5"><path d="M27,32 h10 M29,34 h6 M31,36 h2" /></g><g class="point dot" id="X-Q2"><circle cx="57" cy="-0" r="1" class="marker dot wire" /></g><g class="capacitor" id="C-6"><line x1="61" y1="14.5" x2="53" y2="14.5" class="pos plane" /><line x1="61" y1="17.5" x2="53" y2="17.5" class="neg plane" /><text class="lbl"><tspan style="font-family:Arial;font-size:4pt;" x="62.5" y="17.45">C</tspan><tspan style="font-family:Arial;font-size:3.2pt;" x="66.5" y="18.55">1</tspan></text></g><g class="ground" id="GND-7"><path d="M52,32 h10 M54,34 h6 M56,36 h2" /></g><g class="terminal out" id="T-8"><polygon points="71.99,-0 69.99,2 66.99,2 66.99,-2 69.99,-2" /><text class="lbl"><tspan style="font-family:Arial;font-size:4pt;" x="72.99" y="1.45">V</tspan><tspan style="font-family:Arial;font-size:3.2pt;" x="76.99" y="2.55">out</tspan></text></g></svg>