<?xml version="1.0" encoding="UTF-8" standalone="no"?>
<!-- Created with Inkscape (http://www.inkscape.org/) -->

<svg
   xmlns:dc="http://purl.org/dc/elements/1.1/"
   xmlns:cc="http://creativecommons.org/ns#"
   xmlns:rdf="http://www.w3.org/1999/02/22-rdf-syntax-ns#"
   xmlns:svg="http://www.w3.org/2000/svg"
   xmlns="http://www.w3.org/2000/svg"
   xmlns:sodipodi="http://sodipodi.sourceforge.net/DTD/sodipodi-0.dtd"
   xmlns:inkscape="http://www.inkscape.org/namespaces/inkscape"
   width="48"
   height="48"
   viewBox="0 0 48 48"
   id="svg2"
   version="1.1"
   inkscape:version="0.91 r13725"
   sodipodi:docname="logo.svg">
  <defs
     id="defs4" />
  <sodipodi:namedview
     id="base"
     pagecolor="#ffffff"
     bordercolor="#666666"
     borderopacity="1.0"
     inkscape:pageopacity="0.0"
     inkscape:pageshadow="2"
     inkscape:zoom="15.839192"
     inkscape:cx="21.308483"
     inkscape:cy="22.448072"
     inkscape:document-units="px"
     inkscape:current-layer="layer1"
     showgrid="false"
     showguides="true"
     inkscape:guide-bbox="true"
     inkscape:snap-bbox="false"
     inkscape:object-nodes="true"
     inkscape:snap-nodes="false"
     inkscape:snap-object-midpoints="true"
     fit-margin-top="1.5"
     fit-margin-left="1.5"
     fit-margin-right="1.5"
     fit-margin-bottom="1.5"
     inkscape:window-width="1920"
     inkscape:window-height="1017"
     inkscape:window-x="1912"
     inkscape:window-y="-8"
     inkscape:window-maximized="1"
     units="px" />
  <metadata
     id="metadata7">
    <rdf:RDF>
      <cc:Work
         rdf:about="">
        <dc:format>image/svg+xml</dc:format>
        <dc:type
           rdf:resource="http://purl.org/dc/dcmitype/StillImage" />
        <dc:title></dc:title>
      </cc:Work>
    </rdf:RDF>
  </metadata>
  <g
     inkscape:label="Layer 1"
     inkscape:groupmode="layer"
     id="layer1"
     transform="translate(-215.39449,-265.515)">
    <path
       style="fill:#dddddd;fill-opacity:1;stroke:none;stroke-opacity:1"
       d="m 14.533203,1.5 c -0.60254,0.00714 -1.188684,0.057956 -1.724609,0.1289062 C 8.8800337,2.1558263 5.5568775,4.3496387 3.8046875,7.5742188 3.0788175,8.9100287 2.80402,9.8812469 2.65625,11.623047 c -0.0694,0.81828 -0.175345,1.558814 -0.234375,1.646484 -0.72375,1.07507 -0.764305,1.194756 -0.765625,2.285157 -10e-4,1.22685 0.2264312,1.776762 1.0507812,2.539062 l 0.4726563,0.435547 -0.8652344,7.644531 c -0.57191,5.05091 -0.8468868,7.904333 -0.8105469,8.408203 0.13185,1.82809 1.6729288,3.448105 3.7304688,3.921875 0.51436,0.11844 4.901303,0.176362 9.314453,0.175782 l 0.06836,0 c 2.175587,2.76e-4 4.331267,-0.01447 6.033203,-0.04297 0.07829,-0.768022 0.184041,-1.739337 0.294921,-2.75 -0.495622,-0.01617 -0.810724,-0.04619 -0.835937,-0.115235 -0.0267,-0.0731 -0.159032,-3.192893 -0.294922,-6.933593 -0.1359,-3.74069 -0.280966,-7.434545 -0.322265,-8.208985 l -0.07617,-1.408203 1.742187,0 0.357422,0 c 0.109333,-1.139434 0.286755,-1.962887 0.630859,-2.794922 -1.333864,0.0236 -3.595327,0.03055 -7.5625,0.0293 -7.7049696,0.002 -9.110094,-0.02052 -9.396484,-0.152344 -0.36745,-0.16908 -0.4863281,-0.355801 -0.4863281,-0.763672 0,-0.39796 0.1932012,-0.641174 0.6132812,-0.771484 0.26437,-0.082 4.7326109,-0.122577 9.2695309,-0.123047 3.563716,3.54e-4 7.001765,0.02749 8.476563,0.07813 0.875205,-1.361687 2.033154,-2.517045 3.414062,-3.40039 C 26.3198,9.7793014 26.040933,8.8248885 25.361328,7.5742188 23.609138,4.3496387 20.285982,2.1558262 16.357422,1.6289062 15.754437,1.5294113 15.135743,1.4928638 14.533203,1.5 Z m 0.07422,2.7871094 c 0.763096,-0.00744 1.516985,0.067882 2.25,0.2480468 1.68252,0.4254901 3.151457,1.2333569 4.310547,2.3730469 1.12218,1.1034 2.222656,3.4072869 2.222656,4.6542969 l 0,0.326172 -17.6152344,0 0,-0.326172 c 0,-1.24701 1.1004763,-3.5508969 2.2226563,-4.6542969 1.15909,-1.13969 2.6280271,-1.9475568 4.3105471,-2.3730469 0.76491,-0.150415 1.535732,-0.2406093 2.298828,-0.2480468 z m -3.472656,3.484375 c -0.6921,-0.0224 -1.405351,0.3552668 -1.494141,1.1542968 -0.0626,0.5635101 0.1223025,0.9075619 0.664063,1.2324218 0.49448,0.29651 0.90465,0.305383 1.40625,0.0332 0.522459,-0.2834597 0.785156,-0.6747047 0.785156,-1.1718748 0,-0.8018999 -0.669238,-1.2256068 -1.361328,-1.2480468 z m 6.896484,0 c -0.69209,0.0224 -1.361328,0.4461469 -1.361328,1.2480468 0,0.49717 0.262696,0.888415 0.785156,1.1718748 0.5016,0.27214 0.91177,0.263267 1.40625,-0.0332 0.54176,-0.3248599 0.726683,-0.6689118 0.664063,-1.2324218 -0.0888,-0.79903 -0.802041,-1.1767268 -1.494141,-1.1542968 z M 6.265625,19.220703 l 1.7421875,0 1.7421875,0 -0.076172,1.408203 c -0.0413,0.77444 -0.1863756,4.468295 -0.3222656,8.208985 -0.13589,3.7407 -0.2682519,6.860533 -0.2949219,6.933593 -0.0352,0.0964 -0.4351844,0.132813 -1.4589844,0.132813 -1.22666,0 -1.4830825,-0.03047 -1.9453124,-0.238281 -0.69661,-0.31313 -1.0703126,-0.81861 -1.0703126,-1.44336 0,-0.46233 1.4898107,-13.9482 1.6191407,-14.65625 z m 6.556641,0 3.521484,0 0.002,0.292969 c 8.9e-4,0.16074 0.134495,3.662593 0.296875,7.783203 0.16238,4.12061 0.295985,7.743931 0.296875,8.050781 l 0.002,0.556641 -4.714844,0 -0.002,0 0.002,-0.556641 c 8.9e-4,-0.30685 0.134505,-3.930171 0.296876,-8.050781 0.16238,-4.12061 0.295954,-7.622463 0.296874,-7.783203 z m 10.71289,4.138672 c -15.690104,16.427083 -7.845052,8.213542 0,0 z"
       transform="translate(215.39449,265.515)"
       id="path4170"
       inkscape:connector-curvature="0"
       sodipodi:nodetypes="scsccccccsscccccscccccccsccccscsscssccsscsccscsccsscscccccscscscccccscccccscccc" />
    <path
       style="fill:#c8c8c8;fill-opacity:1;stroke:none;stroke-opacity:1"
       d="m 247.03689,274.96361 c -3.92856,0.52692 -7.25162,2.72167 -9.00382,5.94624 -0.72586,1.33581 -1.00125,2.30553 -1.14902,4.04732 -0.0694,0.81828 -0.17436,1.55951 -0.23339,1.64719 -0.72375,1.07506 -0.76378,1.19439 -0.7651,2.28479 -0.001,1.22686 0.22614,1.77711 1.05049,2.53941 l 0.47175,0.43615 -0.86562,7.64455 c -0.57191,5.05091 -0.84698,7.90317 -0.81063,8.40705 0.13184,1.82808 1.67341,3.44868 3.73096,3.92246 0.51435,0.11843 4.90094,0.17681 9.31408,0.17623 0.0233,-10e-6 0.0463,0 0.0697,0 4.41315,5.7e-4 8.79973,-0.0578 9.31409,-0.17623 2.05754,-0.47378 3.59911,-2.09438 3.73096,-3.92246 0.0363,-0.50388 -0.23873,-3.35614 -0.81064,-8.40705 l -0.86562,-7.64455 0.47175,-0.43615 c 0.82435,-0.7623 1.05197,-1.31255 1.05049,-2.53941 -0.001,-1.0904 -0.0413,-1.20973 -0.7651,-2.28479 -0.059,-0.0877 -0.16397,-0.82891 -0.23339,-1.64719 -0.14777,-1.74179 -0.42315,-2.71151 -1.14902,-4.04732 -1.75219,-3.22457 -5.07526,-5.41932 -9.00381,-5.94624 -1.20598,-0.19899 -2.47723,-0.1419 -3.54908,0 z m -7.03222,10.25925 0,-0.32457 c 0,-1.247 1.10047,-3.55165 2.22265,-4.65505 1.15909,-1.1397 2.62643,-1.9481 4.30896,-2.37358 1.52981,-0.30083 3.08428,-0.36034 4.5503,0 1.68252,0.42548 3.14986,1.23388 4.30895,2.37358 1.12218,1.1034 2.22265,3.40805 2.22265,4.65505 l 0,0.32457 z m 5.3587,-4.1164 c -0.6921,-0.0224 -1.40633,0.35533 -1.49512,1.15435 -0.0626,0.56351 0.12257,0.90698 0.66433,1.23184 0.49448,0.29651 0.9057,0.30668 1.40729,0.0345 0.52247,-0.28346 0.7855,-0.67644 0.7855,-1.17361 0,-0.80191 -0.66991,-1.22469 -1.362,-1.24712 z m 6.89612,0 c -0.6921,0.0224 -1.36201,0.44521 -1.36201,1.24712 0,0.49717 0.26304,0.89015 0.7855,1.17361 0.5016,0.27214 0.91281,0.26197 1.40729,-0.0345 0.54177,-0.32486 0.72696,-0.66833 0.66434,-1.23184 -0.0888,-0.79902 -0.80303,-1.17679 -1.49512,-1.15435 z m -12.84352,8.53036 c -0.36745,-0.16908 -0.48618,-0.3555 -0.48618,-0.76337 0,-0.39795 0.19225,-0.63993 0.61233,-0.77023 0.26437,-0.082 4.73238,-0.12306 9.2693,-0.12354 4.53692,4.5e-4 9.00494,0.0415 9.26931,0.12354 0.42008,0.1303 0.61233,0.37228 0.61233,0.77023 0,0.40787 -0.11873,0.59429 -0.48618,0.76337 -0.2864,0.13178 -1.69048,0.15476 -9.39546,0.15232 -7.70497,0.002 -9.10905,-0.0205 -9.39545,-0.15232 z m 1.07712,2.91866 1.74244,0 1.74245,0 -0.0749,1.40807 c -0.0413,0.77444 -0.18632,4.46864 -0.32221,8.20934 -0.13589,3.74069 -0.26892,6.86104 -0.29559,6.9341 -0.0352,0.0963 -0.43624,0.13283 -1.46004,0.13283 -1.22666,0 -1.4815,-0.0313 -1.94373,-0.2391 -0.69661,-0.31314 -1.07114,-0.81765 -1.07114,-1.44239 0,-0.46234 1.49044,-13.94943 1.61977,-14.65748 z m 5.96078,16.68434 0.002,-0.55791 c 8.9e-4,-0.30686 0.13446,-3.92933 0.29684,-8.04993 0.16237,-4.12061 0.29591,-7.62353 0.29683,-7.78426 l 0.002,-0.29224 c 1.17358,0 2.34715,0 3.52072,0 l 0.002,0.29224 c 8.9e-4,0.16073 0.13446,3.66365 0.29684,7.78426 0.16238,4.1206 0.29594,7.74307 0.29683,8.04993 l 0.002,0.55791 c -1.5717,0 -3.14339,0 -4.71508,0 z m 7.19101,-16.68434 1.74244,0 1.74244,0 0.063,0.34537 c 0.12934,0.70805 1.61978,14.19514 1.61978,14.65748 0,0.62474 -0.37454,1.12925 -1.07114,1.44239 -0.46223,0.20778 -0.71707,0.2391 -1.94374,0.2391 -1.02379,0 -1.42485,-0.0365 -1.46003,-0.13283 -0.0267,-0.0731 -0.1597,-3.19341 -0.29559,-6.9341 -0.13589,-3.7407 -0.28092,-7.4349 -0.32222,-8.20934 z"
       id="path4147"
       inkscape:connector-curvature="0"
       sodipodi:nodetypes="cssssccsssccsssccsssscccssccssccssssssssssssssscssccscccscsssccccsccccscccccccssscsccc" />
  </g>
</svg>
