<?xml version="1.0" encoding="UTF-8" standalone="no"?>
<svg
   xmlns:dc="http://purl.org/dc/elements/1.1/"
   xmlns:cc="http://creativecommons.org/ns#"
   xmlns:rdf="http://www.w3.org/1999/02/22-rdf-syntax-ns#"
   xmlns:svg="http://www.w3.org/2000/svg"
   xmlns="http://www.w3.org/2000/svg"
   xmlns:xlink="http://www.w3.org/1999/xlink"
   xmlns:sodipodi="http://sodipodi.sourceforge.net/DTD/sodipodi-0.dtd"
   xmlns:inkscape="http://www.inkscape.org/namespaces/inkscape"
   version="1.0"
   width="38.000000pt"
   height="38.000000pt"
   viewBox="0 0 172.000000 172.000000"
   preserveAspectRatio="xMidYMid meet"
   id="svg12"
   sodipodi:docname="logo.svg"
   inkscape:version="0.92.2 (5c3e80d, 2017-08-06)">
  <defs
     id="defs16">
    <radialGradient
       inkscape:collect="always"
       xlink:href="#linearGradient4182"
       id="radialGradient4188"
       cx="-194.80606"
       cy="245.9951"
       fx="-194.80606"
       fy="245.9951"
       r="83.458778"
       gradientTransform="matrix(0.38249365,-0.1699129,0.10017066,0.22549577,104.98403,-50.50053)"
       gradientUnits="userSpaceOnUse" />
    <linearGradient
       inkscape:collect="always"
       id="linearGradient4182">
      <stop
         style="stop-color:#ffffff;stop-opacity:1"
         offset="0"
         id="stop4184" />
      <stop
         style="stop-color:#929292;stop-opacity:1"
         offset="1"
         id="stop4186" />
    </linearGradient>
    <radialGradient
       inkscape:collect="always"
       xlink:href="#linearGradient4182"
       id="radialGradient4192"
       gradientUnits="userSpaceOnUse"
       gradientTransform="matrix(0.38249365,-0.1699129,0.10017066,0.22549577,151.13288,-28.583687)"
       cx="-194.80606"
       cy="245.9951"
       fx="-194.80606"
       fy="245.9951"
       r="83.458778" />
  </defs>
  <sodipodi:namedview
     pagecolor="#ffffff"
     bordercolor="#666666"
     borderopacity="1"
     objecttolerance="10"
     gridtolerance="10"
     guidetolerance="10"
     inkscape:pageopacity="0"
     inkscape:pageshadow="2"
     inkscape:window-width="3840"
     inkscape:window-height="2275"
     id="namedview14"
     showgrid="false"
     inkscape:zoom="18.631579"
     inkscape:cx="42.854794"
     inkscape:cy="37.461596"
     inkscape:window-x="-13"
     inkscape:window-y="-13"
     inkscape:window-maximized="1"
     inkscape:current-layer="svg12" />
  <metadata
     id="metadata2">
Created by Docfx
<rdf:RDF>
  <cc:Work
     rdf:about="">
    <dc:format>image/svg+xml</dc:format>
    <dc:type
       rdf:resource="http://purl.org/dc/dcmitype/StillImage" />
  </cc:Work>
</rdf:RDF>
</metadata>
  <path
     inkscape:connector-curvature="0"
     id="path4168"
     d="m 63.273282,25.946673 c -10.431799,-0.03204 -20.470205,6.267316 -25.000711,15.628429 -2.559195,4.471081 -2.752176,9.670719 -3.264753,14.656761 -0.308592,2.118768 -2.358673,3.710847 -2.014355,6.018604 -0.235038,2.762593 0.306918,5.766721 2.558145,7.619251 2.009081,1.277368 0.52304,3.763688 0.652532,5.690957 -1.1984,12.972409 -2.870141,25.942085 -3.590272,38.918645 0.334039,5.86205 5.943301,10.82053 11.80965,10.24613 13.563578,0.28205 27.188711,0.43419 40.74329,-0.15883 5.722012,-0.974 9.977115,-7.0842 8.86325,-12.81948 -1.075551,-13.5853 -2.61164,-27.148683 -3.932103,-40.724821 2.000974,-1.794349 3.874405,-4.119592 3.662778,-6.98411 0.307783,-2.415647 -0.318786,-4.789597 -1.772567,-6.737392 C 91.056247,52.540153 91.438452,47.435369 89.155643,42.991994 85.227935,33.682232 76.058944,26.943743 65.928055,26.055898 c -0.881831,-0.0885 -1.768762,-0.120095 -2.654773,-0.109225 z"
     style="fill:#a9a9a9;fill-opacity:1;stroke:none;stroke-width:0.30558547;stroke-opacity:1" />
  <path
     style="fill:url(#radialGradient4188);fill-opacity:1;fill-rule:evenodd;stroke:none;stroke-width:0.30558547px;stroke-linecap:butt;stroke-linejoin:miter;stroke-opacity:1"
     d="m 37.620354,56.229468 c 0,-8.334933 3.547762,-27.164537 25.698274,-27.164537 22.920076,0 25.00372,20.660394 25.00372,27.396054 z"
     id="path4172"
     inkscape:connector-curvature="0"
     sodipodi:nodetypes="cscc" />
  <path
     sodipodi:nodetypes="cssssccsssccsssccsssscccssccssccssssssssssssssscssccscccscsssccccsccccscccccccssscsccc"
     inkscape:connector-curvature="0"
     id="path4170"
     d="m 59.154222,25.690568 c -9.423703,1.420489 -17.394976,7.337171 -21.598087,16.030105 -1.741186,3.601138 -2.401773,6.215343 -2.756237,10.91095 -0.166523,2.205949 -0.418261,4.20419 -0.559842,4.440542 -1.736113,2.898197 -1.83214,3.219908 -1.835303,6.159454 -0.0035,3.307397 0.542463,4.790798 2.519885,6.845833 l 1.131623,1.175785 -2.076432,20.608519 c -1.371874,13.616434 -2.0317,21.305684 -1.944526,22.664054 0.316275,4.92822 4.01414,9.29712 8.949715,10.57433 1.233823,0.31929 11.75623,0.47665 22.342355,0.47509 0.05597,-1e-5 0.111148,2e-5 0.167119,0 10.586125,0.002 21.108536,-0.1558 22.342355,-0.47509 4.935575,-1.27721 8.63344,-5.64611 8.949715,-10.57433 0.08718,-1.35837 -0.572652,-9.04762 -1.944526,-22.664054 l -2.076428,-20.608519 1.131619,-1.175785 c 1.977422,-2.055035 2.523433,-3.538436 2.519886,-6.845833 -0.0031,-2.939546 -0.09919,-3.261257 -1.835301,-6.159454 C 92.440231,56.835813 92.18849,54.837572 92.021967,52.631623 91.667503,47.936016 91.006916,45.321811 89.26573,41.720673 85.062619,33.027739 77.091346,27.111057 67.667643,25.690568 c -2.892849,-0.536456 -5.942286,-0.382544 -8.513421,0 z M 42.285544,53.34787 v -0.87498 c 0,-3.361736 2.639782,-9.574704 5.331632,-12.549295 2.780391,-3.072435 6.3002,-5.251761 10.33619,-6.398794 3.669678,-0.810993 7.398481,-0.971401 10.915134,0 4.035989,1.147033 7.555799,3.326359 10.336189,6.398794 2.691848,2.974591 5.331629,9.187559 5.331629,12.549295 v 0.87498 z m 12.85429,-11.097171 c -1.660175,-0.06049 -3.373455,0.957916 -3.586451,3.11196 -0.150214,1.51913 0.294016,2.445078 1.593579,3.320852 1.186148,0.799345 2.172557,0.826753 3.375766,0.09311 1.253273,-0.764168 1.884243,-1.82359 1.884243,-3.163882 0,-2.161803 -1.606964,-3.301551 -3.267137,-3.36204 z m 16.5422,0 c -1.660172,0.06049 -3.267139,1.200236 -3.267139,3.362039 0,1.340292 0.630972,2.399714 1.884246,3.163882 1.203209,0.733644 2.189614,0.706236 3.375763,-0.09311 1.299563,-0.875774 1.743795,-1.801722 1.593582,-3.320852 -0.212999,-2.154044 -1.926279,-3.172448 -3.586452,-3.111959 z M 40.873397,65.247212 c -0.881434,-0.455808 -1.166239,-0.95838 -1.166239,-2.057929 0,-1.072819 0.461162,-1.725152 1.468839,-2.076428 0.634163,-0.22107 11.351901,-0.33175 22.23493,-0.33304 10.883028,0.0012 21.600766,0.11197 22.234929,0.33304 1.007678,0.351276 1.46884,1.003609 1.46884,2.076428 0,1.099549 -0.284806,1.602121 -1.16624,2.057929 -0.686989,0.355258 -4.055061,0.417216 -22.537529,0.41063 -18.482466,0.0066 -21.85054,-0.05537 -22.53753,-0.41063 z m 2.583762,7.86823 h 4.179715 4.179719 l -0.179654,3.795942 c -0.09906,2.08777 -0.446943,12.046751 -0.772914,22.131071 -0.325971,10.084325 -0.645064,18.496275 -0.709053,18.693235 -0.08439,0.25973 -1.046441,0.35811 -3.502297,0.35811 -2.942482,0 -3.553779,-0.0845 -4.662568,-0.64459 -1.67099,-0.84417 -2.569424,-2.20425 -2.569424,-3.88846 0,-1.24637 3.575228,-37.605448 3.885474,-39.514229 z m 14.298527,44.978358 0.0042,-1.50405 c 0.0021,-0.82723 0.322527,-10.59284 0.712039,-21.701344 0.389508,-11.108512 0.709835,-20.551817 0.712038,-20.985128 l 0.0043,-0.787836 c 2.815126,0 5.630253,0 8.445379,0 l 0.0042,0.787836 c 0.0021,0.433311 0.32253,9.876616 0.712038,20.985128 0.389512,11.108504 0.7099,20.874114 0.712039,21.701344 l 0.0042,1.50405 c -3.77013,0 -7.540257,0 -11.310387,0 z m 17.24959,-44.978358 h 4.179715 4.179719 l 0.151002,0.931079 c 0.310245,1.908781 3.88547,38.267859 3.88547,39.514229 0,1.68421 -0.89843,3.04429 -2.569424,3.88846 -1.108786,0.56014 -1.720082,0.64459 -4.662568,0.64459 -2.455855,0 -3.417906,-0.0984 -3.502293,-0.35811 -0.06399,-0.19696 -0.383085,-8.60891 -0.709053,-18.693235 -0.325971,-10.08432 -0.673859,-20.043301 -0.772917,-22.131071 z"
     style="fill:#000000;fill-opacity:1;stroke:none;stroke-width:0.30558547;stroke-opacity:1" />
  <path
     style="fill:#ffffff;fill-opacity:1;stroke:none;stroke-width:0.30558547;stroke-opacity:1"
     d="m 108.45141,47.027865 c -10.431796,-0.03204 -20.470202,6.267316 -25.000708,15.628428 -2.559196,4.471082 -2.752176,9.67072 -3.264753,14.656762 -0.308593,2.118768 -2.358674,3.710847 -2.014355,6.018604 -0.235038,2.762593 0.306917,5.766721 2.558144,7.619251 2.009081,1.277368 0.52304,3.763688 0.652532,5.690957 -1.198399,12.972413 -2.870141,25.942083 -3.590272,38.918643 0.334039,5.86206 5.943301,10.82053 11.80965,10.24613 13.563582,0.28205 27.188712,0.43419 40.743292,-0.15883 5.72201,-0.974 9.97711,-7.0842 8.86325,-12.81948 -1.07555,-13.5853 -2.61164,-27.14868 -3.9321,-40.724819 2.00097,-1.794349 3.8744,-4.119592 3.66277,-6.98411 0.30779,-2.415647 -0.31878,-4.789597 -1.77256,-6.737393 -0.93192,-4.760664 -0.54972,-9.865447 -2.83253,-14.308822 -3.92771,-9.309762 -13.0967,-16.048251 -23.22758,-16.936096 -0.88184,-0.0885 -1.76877,-0.120095 -2.65478,-0.109225 z"
     id="path4154"
     inkscape:connector-curvature="0" />
  <path
     sodipodi:nodetypes="cscc"
     inkscape:connector-curvature="0"
     id="path4190"
     d="m 83.769201,78.14631 c 0,-8.334932 3.547762,-27.164536 25.698269,-27.164536 22.92008,0 25.00372,20.660394 25.00372,27.396054 z"
     style="fill:url(#radialGradient4192);fill-opacity:1;fill-rule:evenodd;stroke:none;stroke-width:0.30558547px;stroke-linecap:butt;stroke-linejoin:miter;stroke-opacity:1" />
  <path
     style="fill:#000000;fill-opacity:1;stroke:none;stroke-width:0.30558547;stroke-opacity:1"
     d="m 104.33235,46.771759 c -9.4237,1.42049 -17.394973,7.337172 -21.598084,16.030106 -1.741187,3.601138 -2.401774,6.215343 -2.756238,10.91095 -0.166522,2.205948 -0.418261,4.20419 -0.559841,4.440542 -1.736114,2.898197 -1.832141,3.219908 -1.835304,6.159454 -0.0035,3.307397 0.542463,4.790798 2.519885,6.845832 l 1.131623,1.175786 -2.076432,20.608521 c -1.371874,13.61644 -2.0317,21.30568 -1.944526,22.66405 0.316275,4.92822 4.01414,9.29712 8.949715,10.57433 1.233823,0.31929 11.756231,0.47666 22.342352,0.4751 0.056,-1e-5 0.11115,1e-5 0.16712,0 10.58613,0.002 21.10854,-0.15581 22.34236,-0.4751 4.93557,-1.27721 8.63344,-5.64611 8.94971,-10.57433 0.0872,-1.35837 -0.57265,-9.04761 -1.94452,-22.66405 l -2.07643,-20.608521 1.13162,-1.175786 c 1.97742,-2.055034 2.52343,-3.538435 2.51988,-6.845832 -0.003,-2.939546 -0.0992,-3.261257 -1.8353,-6.159454 -0.14158,-0.236352 -0.39332,-2.234594 -0.55984,-4.440542 -0.35447,-4.695607 -1.01505,-7.309812 -2.75624,-10.91095 -4.20311,-8.692934 -12.17438,-14.609616 -21.59809,-16.030106 -2.89285,-0.536455 -5.94228,-0.382544 -8.51342,0 z M 87.463674,74.429062 v -0.87498 c 0,-3.361736 2.639782,-9.574704 5.331632,-12.549295 2.780391,-3.072435 6.300201,-5.251761 10.336194,-6.398794 3.66967,-0.810993 7.39848,-0.971401 10.91513,0 4.03599,1.147033 7.5558,3.326359 10.33619,6.398794 2.69185,2.974591 5.33163,9.187559 5.33163,12.549295 v 0.87498 z M 100.31796,63.331891 c -1.660171,-0.06049 -3.373451,0.957916 -3.586447,3.11196 -0.150214,1.519129 0.294016,2.445078 1.593579,3.320852 1.186148,0.799345 2.172558,0.826752 3.375768,0.09311 1.25327,-0.764168 1.88424,-1.82359 1.88424,-3.163882 0,-2.161803 -1.60696,-3.301552 -3.26714,-3.36204 z m 16.5422,0 c -1.66017,0.06049 -3.26714,1.200236 -3.26714,3.362039 0,1.340292 0.63098,2.399714 1.88425,3.163882 1.20321,0.733643 2.18962,0.706236 3.37576,-0.09311 1.29957,-0.875774 1.7438,-1.801723 1.59359,-3.320852 -0.213,-2.154044 -1.92628,-3.172448 -3.58646,-3.111959 z M 86.051527,86.328404 c -0.881434,-0.455808 -1.166239,-0.95838 -1.166239,-2.057929 0,-1.072819 0.461162,-1.725152 1.468839,-2.076429 0.634163,-0.221069 11.351901,-0.331749 22.234933,-0.333039 10.88303,0.0012 21.60076,0.11197 22.23493,0.333039 1.00767,0.351277 1.46884,1.00361 1.46884,2.076429 0,1.099549 -0.28481,1.602121 -1.16624,2.057929 -0.68699,0.355258 -4.05506,0.417216 -22.53753,0.41063 -18.482469,0.0066 -21.850543,-0.05537 -22.537533,-0.41063 z m 2.583762,7.86823 h 4.179715 4.179719 l -0.179654,3.795942 c -0.09906,2.087774 -0.446943,12.046754 -0.772914,22.131074 -0.325971,10.08432 -0.645064,18.49627 -0.709053,18.69323 -0.08439,0.25973 -1.046441,0.35811 -3.502297,0.35811 -2.942482,0 -3.553778,-0.0845 -4.662568,-0.64459 -1.67099,-0.84416 -2.569423,-2.20425 -2.569423,-3.88846 0,-1.24637 3.575227,-37.605446 3.885473,-39.514227 z m 14.298531,44.978356 0.004,-1.50405 c 0.002,-0.82723 0.32253,-10.59284 0.71204,-21.70134 0.38951,-11.10851 0.70984,-20.551819 0.71204,-20.98513 l 0.004,-0.787836 c 2.81512,0 5.63025,0 8.44538,0 l 0.004,0.787836 c 0.002,0.433311 0.32253,9.87662 0.71204,20.98513 0.38951,11.1085 0.7099,20.87411 0.71204,21.70134 l 0.004,1.50405 c -3.77013,0 -7.54026,0 -11.31039,0 z m 17.24959,-44.978356 h 4.17971 4.17972 l 0.151,0.931079 c 0.31025,1.908781 3.88547,38.267857 3.88547,39.514227 0,1.68421 -0.89843,3.0443 -2.56942,3.88846 -1.10879,0.56014 -1.72008,0.64459 -4.66257,0.64459 -2.45586,0 -3.41791,-0.0984 -3.50229,-0.35811 -0.064,-0.19696 -0.38309,-8.60891 -0.70906,-18.69323 -0.32597,-10.08432 -0.67385,-20.0433 -0.77291,-22.131074 z"
     id="path4147"
     inkscape:connector-curvature="0"
     sodipodi:nodetypes="cssssccsssccsssccsssscccssccssccssssssssssssssscssccscccscsssccccsccccscccccccssscsccc" />
</svg>
