<?xml version="1.0" encoding="UTF-8" standalone="no"?>
<!-- Created with Inkscape (http://www.inkscape.org/) -->

<svg
   xmlns:dc="http://purl.org/dc/elements/1.1/"
   xmlns:cc="http://creativecommons.org/ns#"
   xmlns:rdf="http://www.w3.org/1999/02/22-rdf-syntax-ns#"
   xmlns:svg="http://www.w3.org/2000/svg"
   xmlns="http://www.w3.org/2000/svg"
   xmlns:xlink="http://www.w3.org/1999/xlink"
   xmlns:sodipodi="http://sodipodi.sourceforge.net/DTD/sodipodi-0.dtd"
   xmlns:inkscape="http://www.inkscape.org/namespaces/inkscape"
   width="48"
   height="48"
   viewBox="0 0 44.999999 44.999999"
   id="svg2"
   version="1.1"
   inkscape:version="0.92.2 (5c3e80d, 2017-08-06)"
   sodipodi:docname="logo.svg"
   inkscape:export-filename="C:\Users\Sven\Desktop\logo_full.png"
   inkscape:export-xdpi="116.07488"
   inkscape:export-ydpi="116.07488">
  <defs
     id="defs4">
    <linearGradient
       inkscape:collect="always"
       id="linearGradient4182">
      <stop
         style="stop-color:#ffffff;stop-opacity:1"
         offset="0"
         id="stop4184" />
      <stop
         style="stop-color:#929292;stop-opacity:1"
         offset="1"
         id="stop4186" />
    </linearGradient>
    <radialGradient
       inkscape:collect="always"
       xlink:href="#linearGradient4182"
       id="radialGradient4188"
       cx="-194.80606"
       cy="245.9951"
       fx="-194.80606"
       fy="245.9951"
       r="83.458778"
       gradientTransform="matrix(0.14188283,-0.06302777,0.03715747,0.08364578,92.317026,414.8738)"
       gradientUnits="userSpaceOnUse" />
    <radialGradient
       inkscape:collect="always"
       xlink:href="#linearGradient4182"
       id="radialGradient4192"
       gradientUnits="userSpaceOnUse"
       gradientTransform="matrix(0.14188283,-0.06302777,0.03715747,0.08364578,109.43556,423.00367)"
       cx="-194.80606"
       cy="245.9951"
       fx="-194.80606"
       fy="245.9951"
       r="83.458778" />
  </defs>
  <sodipodi:namedview
     id="base"
     pagecolor="#ffffff"
     bordercolor="#666666"
     borderopacity="1.0"
     inkscape:pageopacity="0.0"
     inkscape:pageshadow="2"
     inkscape:zoom="11.2"
     inkscape:cx="-3.8314548"
     inkscape:cy="30.723427"
     inkscape:document-units="px"
     inkscape:current-layer="layer1"
     showgrid="false"
     showguides="true"
     inkscape:guide-bbox="true"
     inkscape:snap-bbox="false"
     inkscape:object-nodes="true"
     inkscape:snap-nodes="false"
     inkscape:snap-object-midpoints="true"
     fit-margin-top="0"
     fit-margin-left="0"
     fit-margin-right="0"
     fit-margin-bottom="0"
     inkscape:window-width="3840"
     inkscape:window-height="2035"
     inkscape:window-x="-13"
     inkscape:window-y="-13"
     inkscape:window-maximized="1"
     units="px" />
  <metadata
     id="metadata7">
    <rdf:RDF>
      <cc:Work
         rdf:about="">
        <dc:format>image/svg+xml</dc:format>
        <dc:type
           rdf:resource="http://purl.org/dc/dcmitype/StillImage" />
        <dc:title></dc:title>
      </cc:Work>
    </rdf:RDF>
  </metadata>
  <g
     inkscape:label="Layer 1"
     inkscape:groupmode="layer"
     id="layer1"
     transform="translate(-62.775059,-443.00753)">
    <g
       id="g4532"
       transform="matrix(0.81,0,0,0.81,16.20226,88.446431)">
      <path
         style="fill:#a9a9a9;fill-opacity:1;stroke:none;stroke-width:0.11335438;stroke-opacity:1"
         d="m 76.844772,443.23125 c -3.869588,-0.0119 -7.593251,2.32481 -9.273805,5.79724 -0.949312,1.65851 -1.020897,3.58727 -1.211033,5.4368 -0.114469,0.78594 -0.87493,1.37651 -0.747208,2.23255 -0.08718,1.02476 0.113849,2.13912 0.948922,2.8263 0.745252,0.47383 0.194018,1.39611 0.242052,2.11101 -0.444536,4.81201 -1.064655,9.623 -1.331782,14.43655 0.123909,2.17448 2.204618,4.01378 4.380692,3.80071 5.031296,0.10463 10.085425,0.16106 15.113384,-0.0589 2.122532,-0.3613 3.700927,-2.62783 3.287748,-4.75528 -0.398966,-5.03936 -0.968766,-10.07058 -1.45858,-15.10653 0.742244,-0.6656 1.437178,-1.52813 1.358677,-2.5907 0.114169,-0.89607 -0.118252,-1.77666 -0.657519,-2.49918 -0.345688,-1.76593 -0.203912,-3.65951 -1.050701,-5.30774 -1.456951,-3.45338 -4.858112,-5.95297 -8.61608,-6.2823 -0.327108,-0.0328 -0.656108,-0.0446 -0.984767,-0.0405 z"
         id="path4168"
         inkscape:connector-curvature="0" />
      <path
         sodipodi:nodetypes="cscc"
         inkscape:connector-curvature="0"
         id="path4172"
         d="m 67.329033,454.4644 c 0,-3.09177 1.316012,-10.07646 9.53256,-10.07646 8.502012,0 9.274922,7.6638 9.274922,10.16234 z"
         style="fill:url(#radialGradient4188);fill-opacity:1;fill-rule:evenodd;stroke:none;stroke-width:0.11335438px;stroke-linecap:butt;stroke-linejoin:miter;stroke-opacity:1" />
      <path
         style="fill:#282828;fill-opacity:1;stroke:none;stroke-width:0.11335438;stroke-opacity:1"
         d="m 75.316842,443.13625 c -3.495644,0.52692 -6.452522,2.72166 -8.011631,5.94623 -0.645878,1.33582 -0.890918,2.30553 -1.022403,4.04733 -0.06177,0.81828 -0.15515,1.55951 -0.207669,1.64718 -0.643996,1.07506 -0.679617,1.1944 -0.68079,2.2848 -0.0013,1.22685 0.201222,1.77711 0.93473,2.5394 l 0.419766,0.43615 -0.770235,7.64456 c -0.508885,5.05091 -0.753642,7.90317 -0.721305,8.40704 0.117319,1.82809 1.489011,3.44869 3.319822,3.92246 0.457676,0.11844 4.360875,0.17681 8.28771,0.17623 0.02076,0 0.04123,10e-6 0.06199,0 3.926834,5.7e-4 7.830035,-0.0578 8.28771,-0.17623 1.83081,-0.47377 3.202503,-2.09437 3.319822,-3.92246 0.03234,-0.50387 -0.21242,-3.35613 -0.721305,-8.40704 l -0.770234,-7.64456 0.419765,-0.43615 c 0.733508,-0.76229 0.936046,-1.31255 0.93473,-2.5394 -0.0012,-1.0904 -0.03679,-1.20974 -0.680789,-2.2848 -0.05252,-0.0877 -0.1459,-0.8289 -0.20767,-1.64718 -0.131486,-1.7418 -0.376525,-2.71151 -1.022403,-4.04733 -1.559109,-3.22457 -4.515987,-5.41931 -8.011631,-5.94623 -1.073078,-0.19899 -2.204241,-0.1419 -3.157982,0 z m -6.257296,10.25925 v -0.32457 c 0,-1.24701 0.979205,-3.55166 1.977724,-4.65506 1.031363,-1.13969 2.337007,-1.94809 3.834124,-2.37358 1.361236,-0.30083 2.744405,-0.36033 4.048878,0 1.497116,0.42549 2.802761,1.23389 3.834123,2.37358 0.998519,1.1034 1.977724,3.40805 1.977724,4.65506 v 0.32457 z m 4.768192,-4.11641 c -0.615828,-0.0224 -1.251355,0.35533 -1.330365,1.15436 -0.05572,0.56351 0.109063,0.90698 0.591125,1.23184 0.439992,0.29651 0.805892,0.30668 1.252213,0.0345 0.464891,-0.28346 0.698944,-0.67645 0.698944,-1.17362 0,-0.8019 -0.59609,-1.22468 -1.211917,-1.24712 z m 6.136191,0 c -0.615827,0.0224 -1.211918,0.44522 -1.211918,1.24712 0,0.49717 0.234054,0.89016 0.698945,1.17362 0.446321,0.27214 0.81222,0.26197 1.252211,-0.0345 0.482063,-0.32486 0.646847,-0.66833 0.591126,-1.23184 -0.07901,-0.79903 -0.714537,-1.17679 -1.330364,-1.15436 z m -11.428207,8.53037 c -0.326961,-0.16908 -0.432607,-0.35551 -0.432607,-0.76337 0,-0.39796 0.171064,-0.63994 0.544854,-0.77024 0.235237,-0.082 4.210893,-0.12306 8.247862,-0.12354 4.036969,4.6e-4 8.012624,0.0415 8.247862,0.12354 0.373789,0.1303 0.544853,0.37228 0.544853,0.77024 0,0.40786 -0.105646,0.59429 -0.432607,0.76337 -0.254833,0.13178 -1.504191,0.15476 -8.360108,0.15232 -6.855917,0.002 -8.105276,-0.0205 -8.360109,-0.15232 z m 0.958425,2.91865 h 1.55043 1.550432 l -0.06664,1.40807 c -0.03674,0.77445 -0.16579,4.46865 -0.286706,8.20934 -0.120916,3.7407 -0.239281,6.86104 -0.263017,6.9341 -0.0313,0.0963 -0.388169,0.13284 -1.299148,0.13284 -1.091489,0 -1.318245,-0.0313 -1.729541,-0.23911 -0.61984,-0.31313 -0.953106,-0.81764 -0.953106,-1.44239 0,-0.46233 1.326201,-13.94943 1.441284,-14.65747 z m 5.303919,16.68435 0.0016,-0.55792 c 7.94e-4,-0.30685 0.119639,-3.92932 0.264125,-8.04993 0.144485,-4.12061 0.263307,-7.62352 0.264125,-7.78426 l 0.0016,-0.29224 c 1.044247,0 2.088495,0 3.132743,0 l 0.0016,0.29224 c 7.93e-4,0.16074 0.11964,3.66365 0.264125,7.78426 0.144486,4.12061 0.263331,7.74308 0.264124,8.04993 l 0.0016,0.55792 c -1.398498,0 -2.796995,0 -4.195494,0 z m 6.398592,-16.68435 h 1.550431 1.550431 l 0.05601,0.34538 c 0.115083,0.70804 1.441283,14.19514 1.441283,14.65747 0,0.62475 -0.333265,1.12926 -0.953106,1.44239 -0.411295,0.20778 -0.638051,0.23911 -1.729541,0.23911 -0.910979,0 -1.267844,-0.0365 -1.299147,-0.13284 -0.02374,-0.0731 -0.142102,-3.1934 -0.263017,-6.9341 -0.120916,-3.74069 -0.249962,-7.43489 -0.286707,-8.20934 z"
         id="path4170"
         inkscape:connector-curvature="0"
         sodipodi:nodetypes="cssssccsssccsssccsssscccssccssccssssssssssssssscssccscccscsssccccsccccscccccccssscsccc" />
      <path
         inkscape:connector-curvature="0"
         id="path4154"
         d="m 93.603223,451.05114 c -3.869588,-0.0119 -7.593251,2.32481 -9.273805,5.79724 -0.949312,1.65851 -1.020897,3.58727 -1.211033,5.4368 -0.114469,0.78594 -0.87493,1.37651 -0.747208,2.23255 -0.08719,1.02476 0.113849,2.13912 0.948922,2.8263 0.745252,0.47383 0.194018,1.39611 0.242052,2.11101 -0.444536,4.81201 -1.064655,9.623 -1.331782,14.43655 0.123909,2.17448 2.204618,4.01379 4.380691,3.80072 5.031297,0.10462 10.085426,0.16105 15.11338,-0.0589 2.12254,-0.3613 3.70093,-2.62783 3.28775,-4.75528 -0.39896,-5.03935 -0.96876,-10.07058 -1.45858,-15.10653 0.74225,-0.6656 1.43718,-1.52813 1.35868,-2.5907 0.11417,-0.89606 -0.11825,-1.77666 -0.65752,-2.49918 -0.34569,-1.76593 -0.20391,-3.65951 -1.0507,-5.30774 -1.45695,-3.45338 -4.858112,-5.95296 -8.61608,-6.2823 -0.327108,-0.0328 -0.656108,-0.0446 -0.984767,-0.0405 z"
         style="fill:#e9e9e9;fill-opacity:1;stroke:none;stroke-width:0.11335438;stroke-opacity:1" />
      <path
         style="fill:url(#radialGradient4192);fill-opacity:1;fill-rule:evenodd;stroke:none;stroke-width:0.11335438px;stroke-linecap:butt;stroke-linejoin:miter;stroke-opacity:1"
         d="m 84.447563,462.59427 c 0,-3.09177 1.316013,-10.07646 9.53256,-10.07646 8.502007,0 9.274927,7.6638 9.274927,10.16234 z"
         id="path4190"
         inkscape:connector-curvature="0"
         sodipodi:nodetypes="cscc" />
      <path
         sodipodi:nodetypes="cssssccsssccsssccsssscccssccssccssssssssssssssscssccscccscsssccccsccccscccccccssscsccc"
         inkscape:connector-curvature="0"
         id="path4147"
         d="m 92.075292,450.95614 c -3.495643,0.52692 -6.452521,2.72166 -8.01163,5.94624 -0.645878,1.33581 -0.890918,2.30553 -1.022403,4.04732 -0.06177,0.81828 -0.15515,1.55951 -0.207669,1.64718 -0.643996,1.07507 -0.679617,1.1944 -0.68079,2.2848 -0.0013,1.22685 0.201222,1.77711 0.93473,2.53941 l 0.419766,0.43614 -0.770235,7.64456 c -0.508885,5.05091 -0.753642,7.90317 -0.721305,8.40705 0.117319,1.82808 1.489011,3.44868 3.319822,3.92246 0.457676,0.11843 4.360875,0.17681 8.28771,0.17623 0.02076,-10e-6 0.04123,0 0.06199,0 3.926835,5.6e-4 7.830032,-0.0578 8.287712,-0.17623 1.83081,-0.47378 3.2025,-2.09438 3.31982,-3.92246 0.0323,-0.50388 -0.21242,-3.35614 -0.7213,-8.40705 l -0.77024,-7.64456 0.41977,-0.43614 c 0.73351,-0.7623 0.93604,-1.31256 0.93473,-2.53941 -0.001,-1.0904 -0.0368,-1.20973 -0.68079,-2.2848 -0.0525,-0.0877 -0.1459,-0.8289 -0.20767,-1.64718 -0.13149,-1.74179 -0.37653,-2.71151 -1.0224,-4.04732 -1.55911,-3.22458 -4.515992,-5.41932 -8.011636,-5.94624 -1.073078,-0.19899 -2.204241,-0.1419 -3.157982,0 z m -6.257295,10.25925 v -0.32457 c 0,-1.24701 0.979205,-3.55166 1.977724,-4.65505 1.031363,-1.1397 2.337007,-1.9481 3.834124,-2.37358 1.361236,-0.30084 2.744405,-0.36034 4.048878,0 1.497116,0.42548 2.802761,1.23388 3.834123,2.37358 0.998514,1.10339 1.977724,3.40804 1.977724,4.65505 v 0.32457 z m 4.768192,-4.11641 c -0.615828,-0.0224 -1.251355,0.35534 -1.330365,1.15436 -0.05572,0.56351 0.109063,0.90698 0.591125,1.23184 0.439992,0.29651 0.805892,0.30668 1.252213,0.0345 0.464891,-0.28346 0.698944,-0.67644 0.698944,-1.17361 0,-0.80191 -0.59609,-1.22469 -1.211917,-1.24713 z m 6.136191,0 c -0.615827,0.0224 -1.211918,0.44522 -1.211918,1.24713 0,0.49717 0.234054,0.89015 0.698945,1.17361 0.446321,0.27214 0.812219,0.26197 1.252211,-0.0345 0.482062,-0.32486 0.646847,-0.66833 0.591126,-1.23184 -0.07901,-0.79902 -0.714537,-1.17679 -1.330364,-1.15436 z m -11.428207,8.53037 c -0.326961,-0.16908 -0.432607,-0.3555 -0.432607,-0.76337 0,-0.39795 0.171064,-0.63993 0.544854,-0.77024 0.235237,-0.082 4.210893,-0.12306 8.247862,-0.12353 4.036968,4.5e-4 8.012628,0.0415 8.247858,0.12353 0.37379,0.13031 0.54486,0.37229 0.54486,0.77024 0,0.40787 -0.10565,0.59429 -0.43261,0.76337 -0.25483,0.13178 -1.50419,0.15476 -8.360108,0.15232 -6.855917,0.002 -8.105276,-0.0205 -8.360109,-0.15232 z m 0.958425,2.91865 h 1.55043 1.550432 l -0.06664,1.40808 c -0.03674,0.77444 -0.16579,4.46864 -0.286706,8.20933 -0.120916,3.7407 -0.239281,6.86104 -0.263017,6.9341 -0.0313,0.0963 -0.388169,0.13284 -1.299148,0.13284 -1.09149,0 -1.318245,-0.0313 -1.729541,-0.23911 -0.61984,-0.31313 -0.953106,-0.81764 -0.953106,-1.44239 0,-0.46233 1.326201,-13.94942 1.441284,-14.65747 z m 5.303919,16.68435 0.0016,-0.55791 c 7.94e-4,-0.30686 0.119639,-3.92933 0.264125,-8.04994 0.144485,-4.12061 0.263307,-7.62352 0.264125,-7.78425 l 0.0016,-0.29225 c 1.044247,0 2.088495,0 3.132743,0 l 0.0016,0.29225 c 7.93e-4,0.16073 0.11964,3.66364 0.264125,7.78425 0.144486,4.12061 0.263331,7.74308 0.264124,8.04994 l 0.0016,0.55791 c -1.398498,0 -2.796995,0 -4.195494,0 z M 97.955109,468.548 h 1.55043 1.550431 l 0.056,0.34538 c 0.11509,0.70805 1.44129,14.19514 1.44129,14.65747 0,0.62475 -0.33327,1.12926 -0.95311,1.44239 -0.41129,0.20778 -0.63805,0.23911 -1.72954,0.23911 -0.910979,0 -1.267844,-0.0365 -1.299147,-0.13284 -0.02374,-0.0731 -0.142102,-3.1934 -0.263017,-6.9341 -0.120916,-3.74069 -0.249962,-7.43489 -0.286707,-8.20933 z"
         style="fill:#282828;fill-opacity:1;stroke:none;stroke-width:0.11335438;stroke-opacity:1" />
    </g>
  </g>
</svg>
